<svg width="40" height="40" viewBox="0 0 40 40" fill="none" xmlns="http://www.w3.org/2000/svg">
<path fill-rule="evenodd" clip-rule="evenodd" d="M36.3896 20.2865C36.3896 29.2308 29.1388 36.4816 20.1946 36.4816C11.2506 36.4816 3.99988 29.2308 3.99988 20.2865C3.99988 11.3423 11.2506 31.4091 20.1946 31.4091C29.1388 31.4091 36.3896 11.3423 36.3896 20.2865Z" fill="#DB8C00"/>
<path fill-rule="evenodd" clip-rule="evenodd" d="M36.3897 19.195C36.3897 28.139 29.139 34.7421 20.1947 34.7421C11.2507 34.7421 4 28.139 4 19.195C4 10.2507 11.2507 3 20.1947 3C29.139 3 36.3897 10.2507 36.3897 19.195Z" fill="#FFC359"/>
<path fill-rule="evenodd" clip-rule="evenodd" d="M36.5194 11.7001L36.93 13.7787C36.9964 14.1161 36.6477 14.3832 36.3394 14.231L34.4399 13.2923C34.3175 13.2321 34.1731 13.2353 34.0539 13.302L32.2037 14.3347C31.9039 14.5024 31.5415 14.2527 31.5914 13.9124L31.8967 11.8161C31.9168 11.681 31.8686 11.5447 31.7685 11.4521L30.2149 10.0115C29.9623 9.778 30.0879 9.3564 30.4266 9.29844L32.5152 8.9416C32.6496 8.91829 32.7645 8.83054 32.8219 8.70684L33.7117 6.78406C33.8558 6.47191 34.2952 6.4609 34.4548 6.76528L35.4399 8.64111C35.5036 8.76189 35.6225 8.84381 35.7582 8.86033L37.8619 9.11225C38.2032 9.15305 38.3496 9.56753 38.1093 9.81362L36.6295 11.3303C36.534 11.4278 36.4929 11.5661 36.5194 11.7001Z" fill="#FA9600"/>
<path fill-rule="evenodd" clip-rule="evenodd" d="M20.4132 22.8718C20.2347 22.8718 20.0628 22.7734 19.978 22.6024C19.8585 22.3625 19.9563 22.0711 20.1965 21.9512C20.3905 21.8551 20.5352 21.6886 20.6042 21.483C20.6732 21.2777 20.658 21.0579 20.5615 20.8639C20.3626 20.4643 19.875 20.2995 19.4741 20.4986C19.2338 20.6184 18.9421 20.5207 18.8229 20.2801C18.7034 20.0398 18.8012 19.7484 19.0415 19.6292C19.9223 19.1908 20.9934 19.5512 21.4312 20.4313C21.6433 20.8574 21.677 21.3409 21.5254 21.7919C21.3739 22.2436 21.0556 22.6089 20.6291 22.821C20.5595 22.8556 20.486 22.8718 20.4132 22.8718Z" fill="#60241C"/>
<path fill-rule="evenodd" clip-rule="evenodd" d="M19.8333 25.3464C19.5622 25.3464 19.2931 25.2836 19.0435 25.1599C18.8032 25.0408 18.7048 24.7493 18.8239 24.5091C18.9431 24.2688 19.2352 24.1704 19.4748 24.2895C19.6688 24.3857 19.888 24.4012 20.0942 24.3313C20.2995 24.262 20.4653 24.1169 20.5612 23.923C20.7603 23.5221 20.5958 23.0344 20.1949 22.8359C19.9547 22.7168 19.8566 22.4253 19.9757 22.1851C20.0949 21.9448 20.3863 21.8464 20.6263 21.9655C21.053 22.1773 21.3717 22.5422 21.5239 22.993C21.6761 23.4444 21.6433 23.9275 21.4319 24.354C21.2205 24.7807 20.8558 25.0994 20.4045 25.2519C20.2176 25.3147 20.0249 25.3461 19.8333 25.3464Z" fill="#60241C"/>
<path fill-rule="evenodd" clip-rule="evenodd" d="M13.7317 21.3714C13.7317 22.4053 12.4814 23.2436 10.9391 23.2436C9.39716 23.2436 8.14661 22.4053 8.14661 21.3714C8.14661 20.3374 9.39716 19.4991 10.9391 19.4991C12.4814 19.4991 13.7317 20.3374 13.7317 21.3714Z" fill="#E788AE"/>
<path fill-rule="evenodd" clip-rule="evenodd" d="M32.2429 21.3714C32.2429 22.4053 30.9927 23.2436 29.4504 23.2436C27.9084 23.2436 26.6578 22.4053 26.6578 21.3714C26.6578 20.3374 27.9084 19.4991 29.4504 19.4991C30.9927 19.4991 32.2429 20.3374 32.2429 21.3714Z" fill="#E788AE"/>
<path fill-rule="evenodd" clip-rule="evenodd" d="M11.2176 17.9697C11.0379 17.9697 10.865 17.8694 10.7808 17.6971C9.87835 15.8501 10.6471 13.6129 12.4944 12.7098C13.2333 12.3491 14.0701 12.2969 14.8472 12.5644C15.6253 12.8319 16.2529 13.3862 16.6139 14.1258C17.2337 15.3945 16.7059 16.9313 15.4369 17.5511C14.922 17.8023 14.3395 17.8386 13.7977 17.6524C13.2554 17.4662 12.8182 17.0799 12.5666 16.5647C12.1272 15.6658 12.5015 14.5775 13.4001 14.1387C14.1662 13.7638 15.0956 14.0834 15.4712 14.8498C15.6276 15.1704 15.6503 15.5327 15.5343 15.8705C15.4181 16.2079 15.1778 16.4802 14.8572 16.6366C14.616 16.7548 14.3252 16.6547 14.2077 16.4135C14.0901 16.1726 14.1899 15.8818 14.4311 15.7639C14.5182 15.7212 14.5839 15.6471 14.6157 15.5551C14.6474 15.4628 14.6409 15.364 14.5982 15.2763C14.459 14.991 14.1125 14.8712 13.8262 15.0114C13.6242 15.1102 13.473 15.2818 13.3995 15.4945C13.3263 15.7076 13.3405 15.9359 13.4393 16.1383C13.5772 16.42 13.8162 16.6318 14.1131 16.7334C14.4091 16.8358 14.7284 16.8163 15.0107 16.6781C15.3919 16.4915 15.6781 16.1681 15.816 15.7665C15.9543 15.365 15.9274 14.9337 15.7412 14.5519C15.4939 14.0455 15.0645 13.6663 14.5315 13.483C13.9988 13.2998 13.4267 13.3354 12.9209 13.5828C11.555 14.2501 10.9864 15.9048 11.6535 17.2706C11.7713 17.5119 11.6713 17.8027 11.4304 17.9202C11.3617 17.9539 11.2889 17.9697 11.2176 17.9697Z" fill="#60241C"/>
<path fill-rule="evenodd" clip-rule="evenodd" d="M29.1725 17.9697C29.101 17.9697 29.0285 17.9538 28.9598 17.9202C28.7189 17.8026 28.6188 17.5118 28.7364 17.2706C29.4037 15.9048 28.8351 14.2501 27.4693 13.5827C26.9638 13.3357 26.3913 13.3004 25.8587 13.483C25.3257 13.6663 24.8963 14.0455 24.6489 14.5519C24.4624 14.9337 24.4359 15.365 24.5738 15.7665C24.7121 16.1677 24.998 16.4915 25.3794 16.678C25.6615 16.8157 25.9798 16.8357 26.277 16.7334C26.574 16.6317 26.8129 16.42 26.9509 16.1382C27.0493 15.9359 27.0636 15.7076 26.9904 15.4945C26.9172 15.2818 26.7657 15.1102 26.5633 15.0114C26.425 14.9434 26.2686 14.934 26.1226 14.9842C25.9769 15.0341 25.8596 15.1377 25.792 15.2763C25.7492 15.364 25.7428 15.4628 25.7745 15.5551C25.8062 15.647 25.872 15.7212 25.9591 15.7639C26.2003 15.8818 26.3 16.1726 26.1825 16.4135C26.0646 16.6554 25.7732 16.7541 25.5329 16.6366C25.2124 16.4802 24.9718 16.2079 24.8558 15.8705C24.7399 15.5327 24.7626 15.1704 24.919 14.8501C25.1006 14.4784 25.4157 14.1999 25.8069 14.0655C26.1984 13.9302 26.618 13.9571 26.9901 14.1387C27.4253 14.3511 27.7517 14.7206 27.9094 15.1788C28.0667 15.637 28.0363 16.1295 27.8236 16.5647C27.572 17.0799 27.1348 17.4662 26.5924 17.6524C26.0507 17.8386 25.4688 17.8026 24.9533 17.551C24.3384 17.2509 23.8773 16.7292 23.6552 16.0822C23.4327 15.4349 23.4758 14.74 23.7763 14.1254C24.1373 13.3862 24.7648 12.8318 25.543 12.5644C26.3208 12.2969 27.1562 12.3487 27.8958 12.7098C29.7431 13.6129 30.5118 15.8501 29.6094 17.6971C29.5252 17.8693 29.3523 17.9697 29.1725 17.9697Z" fill="#60241C"/>
</svg>
