<svg width="40" height="40" viewBox="0 0 40 40" fill="none" xmlns="http://www.w3.org/2000/svg">
<path fill-rule="evenodd" clip-rule="evenodd" d="M36.39 20.2869C36.39 29.2309 29.1393 36.4819 20.195 36.4819C11.2507 36.4819 4 29.2309 4 20.2869C4 11.3427 11.2507 31.4091 20.195 31.4091C29.1393 31.4091 36.39 11.3427 36.39 20.2869Z" fill="#DB8C00"/>
<path fill-rule="evenodd" clip-rule="evenodd" d="M36.39 19.195C36.39 28.1393 29.1393 34.7424 20.195 34.7424C11.2507 34.7424 4 28.1393 4 19.195C4 10.2507 11.2507 3 20.195 3C29.1393 3 36.39 10.2507 36.39 19.195Z" fill="#FFC359"/>
<path fill-rule="evenodd" clip-rule="evenodd" d="M13.7321 21.5161C13.7321 22.55 12.4819 23.3881 10.9393 23.3881C9.39696 23.3881 8.14673 22.55 8.14673 21.5161C8.14673 20.4822 9.39696 19.6442 10.9393 19.6442C12.4819 19.6442 13.7321 20.4822 13.7321 21.5161Z" fill="#E788AE"/>
<path fill-rule="evenodd" clip-rule="evenodd" d="M32.2434 21.5161C32.2434 22.55 30.9931 23.3881 29.4505 23.3881C27.9082 23.3881 26.658 22.55 26.658 21.5161C26.658 20.4822 27.9082 19.6442 29.4505 19.6442C30.9931 19.6442 32.2434 20.4822 32.2434 21.5161Z" fill="#E788AE"/>
<path fill-rule="evenodd" clip-rule="evenodd" d="M22.9867 21.5461C22.9867 23.0878 22.5117 26.3188 20.1951 26.3188C17.9343 26.3188 17.4036 23.0878 17.4036 21.5461H22.9867Z" fill="#E788AE"/>
<path fill-rule="evenodd" clip-rule="evenodd" d="M17.9081 22.0319C18.0055 23.4168 18.5236 25.8334 20.1951 25.8334C22.0337 25.8334 22.4064 23.1587 22.4822 22.0319H17.9081ZM20.1951 26.8048C17.6082 26.8048 16.9178 23.4994 16.9178 21.5461C16.9178 21.2777 17.1354 21.0604 17.4036 21.0604H22.9867C23.2548 21.0604 23.4724 21.2777 23.4724 21.5461C23.4724 23.9721 22.6143 26.8048 20.1951 26.8048Z" fill="#60241C"/>
<path fill-rule="evenodd" clip-rule="evenodd" d="M21.921 25.9442C21.6529 25.9442 21.4353 25.7266 21.4353 25.4585C21.4353 24.7393 20.8204 24.4116 20.2485 24.4116C19.6767 24.4116 19.0618 24.7351 19.0618 25.4459C19.0618 25.714 18.8442 25.9316 18.576 25.9316C18.3079 25.9316 18.0903 25.714 18.0903 25.4459C18.0903 24.3022 19.018 23.4402 20.2485 23.4402C21.479 23.4402 22.4067 24.308 22.4067 25.4585C22.4067 25.7266 22.1891 25.9442 21.921 25.9442Z" fill="#60241C"/>
<path fill-rule="evenodd" clip-rule="evenodd" d="M23.7158 14.9025L22.2594 14.6027C21.0028 14.3436 19.7075 14.3334 18.4464 14.5718L16.7015 14.9025C16.3647 14.9025 16.0913 14.6292 16.0913 14.2923C16.0913 13.9555 16.3647 13.6821 16.7015 13.6821L18.3902 13.3566C19.6489 13.1146 20.9434 13.1207 22.1996 13.3749L23.7158 13.6821C24.0527 13.6821 24.3261 13.9555 24.3261 14.2923C24.3261 14.6292 24.0527 14.9025 23.7158 14.9025Z" fill="#60241C"/>
<path fill-rule="evenodd" clip-rule="evenodd" d="M13.9351 12.7L13.2855 13.1068L12.4735 12.7H6.19995V14.0058H6.8533V15.6144C6.8533 17.9304 8.27023 19.9221 10.2832 20.7671C10.478 20.8493 10.884 20.835 10.884 20.835C10.884 20.835 11.2176 21.0543 11.3966 21.1052C11.7225 21.1646 12.0963 21.2 12.4385 21.2C15.5189 21.2 18.0244 18.6944 18.0244 15.6144V12.7H13.9351Z" fill="#60241C"/>
<path fill-rule="evenodd" clip-rule="evenodd" d="M34.1604 12.7004L29.4181 12.7L28.7685 13.1068L27.9565 12.7H22.3363V15.6144C22.3363 17.9304 23.7528 19.9221 25.7658 20.7671C25.961 20.8493 26.367 20.835 26.367 20.835C26.367 20.835 26.697 21.071 26.8841 21.1052C27.2095 21.1646 27.5789 21.2 27.9215 21.2C31.0015 21.2 33.5075 18.6944 33.5075 15.6144V13.966H34.1604V12.7004Z" fill="#60241C"/>
<path fill-rule="evenodd" clip-rule="evenodd" d="M12.4734 12.7L10.7054 16.299H12.4734L10.3035 20.7752L11.3966 21.1052L14.5571 15.4455H12.4165L13.9351 12.7H12.4734Z" fill="#FFFEF6"/>
<path fill-rule="evenodd" clip-rule="evenodd" d="M27.9563 12.7L26.1879 16.2986H27.9563L25.7864 20.7752L26.8795 21.1052L30.04 15.4455H27.899L29.418 12.7H27.9563Z" fill="#FFFEF6"/>
</svg>
