<svg width="40" height="40" viewBox="0 0 40 40" fill="none" xmlns="http://www.w3.org/2000/svg">
<path fill-rule="evenodd" clip-rule="evenodd" d="M36.3901 20.2866C36.3901 29.2308 29.1391 36.4816 20.1951 36.4816C11.2509 36.4816 4.00012 29.2308 4.00012 20.2866C4.00012 11.3423 11.2509 31.4088 20.1951 31.4088C29.1391 31.4088 36.3901 11.3423 36.3901 20.2866Z" fill="#DB8C00"/>
<path fill-rule="evenodd" clip-rule="evenodd" d="M36.39 19.195C36.39 28.139 29.139 34.7421 20.195 34.7421C11.2507 34.7421 4 28.139 4 19.195C4 10.2504 11.2507 3 20.195 3C29.139 3 36.39 10.2504 36.39 19.195Z" fill="#FFC359"/>
<path fill-rule="evenodd" clip-rule="evenodd" d="M15.236 16.0117C15.236 16.9449 14.4793 17.7016 13.546 17.7016C12.6125 17.7016 11.8561 16.9449 11.8561 16.0117C11.8561 15.0784 12.6125 14.322 13.546 14.322C14.4793 14.322 15.236 15.0784 15.236 16.0117Z" fill="#60241C"/>
<path fill-rule="evenodd" clip-rule="evenodd" d="M29.1174 16.0117C29.1174 16.9449 28.361 17.7016 27.4274 17.7016C26.4942 17.7016 25.7378 16.9449 25.7378 16.0117C25.7378 15.0784 26.4942 14.322 27.4274 14.322C28.361 14.322 29.1174 15.0784 29.1174 16.0117Z" fill="#60241C"/>
<path fill-rule="evenodd" clip-rule="evenodd" d="M13.7319 21.1479C13.7319 22.1818 12.4817 23.0202 10.9394 23.0202C9.3974 23.0202 8.14685 22.1818 8.14685 21.1479C8.14685 20.114 9.3974 19.2759 10.9394 19.2759C12.4817 19.2759 13.7319 20.114 13.7319 21.1479Z" fill="#E788AE"/>
<path fill-rule="evenodd" clip-rule="evenodd" d="M32.2431 21.1479C32.2431 22.1818 30.9929 23.0202 29.4506 23.0202C27.9086 23.0202 26.6581 22.1818 26.6581 21.1479C26.6581 20.114 27.9086 19.2759 29.4506 19.2759C30.9929 19.2759 32.2431 20.114 32.2431 21.1479Z" fill="#E788AE"/>
<path fill-rule="evenodd" clip-rule="evenodd" d="M20.4558 20.6301C19.9543 20.6301 19.5463 21.0378 19.5463 21.5394C19.5463 22.041 19.9543 22.4486 20.4558 22.4486C20.9574 22.4486 21.3654 22.041 21.3654 21.5394C21.3654 21.0378 20.9574 20.6301 20.4558 20.6301ZM20.4558 23.4201C19.4187 23.4201 18.5748 22.5765 18.5748 21.5394C18.5748 20.5025 19.4187 19.6587 20.4558 19.6587C21.493 19.6587 22.3368 20.5025 22.3368 21.5394C22.3368 22.5765 21.493 23.4201 20.4558 23.4201Z" fill="#60241C"/>
</svg>
