<svg width="40" height="40" viewBox="0 0 40 40" fill="none" xmlns="http://www.w3.org/2000/svg">
<path fill-rule="evenodd" clip-rule="evenodd" d="M36.3897 20.2865C36.3897 29.2308 29.139 36.4816 20.1947 36.4816C11.2504 36.4816 4 29.2308 4 20.2865C4 11.3426 11.2504 31.4091 20.1947 31.4091C29.139 31.4091 36.3897 11.3426 36.3897 20.2865Z" fill="#DB8C00"/>
<path fill-rule="evenodd" clip-rule="evenodd" d="M36.3897 19.195C36.3897 28.1389 29.139 34.7424 20.1947 34.7424C11.2504 34.7424 4 28.1389 4 19.195C4 10.2507 11.2504 3 20.1947 3C29.139 3 36.3897 10.2507 36.3897 19.195Z" fill="#FFC359"/>
<path fill-rule="evenodd" clip-rule="evenodd" d="M13.7319 21.1913C13.7319 22.2255 12.4816 23.0632 10.939 23.0632C9.39704 23.0632 8.14648 22.2255 8.14648 21.1913C8.14648 20.1577 9.39704 19.3193 10.939 19.3193C12.4816 19.3193 13.7319 20.1577 13.7319 21.1913Z" fill="#E788AE"/>
<path fill-rule="evenodd" clip-rule="evenodd" d="M32.243 21.1913C32.243 22.2255 30.9928 23.0632 29.4501 23.0632C27.9081 23.0632 26.6576 22.2255 26.6576 21.1913C26.6576 20.1577 27.9081 19.3193 29.4501 19.3193C30.9928 19.3193 32.243 20.1577 32.243 21.1913Z" fill="#E788AE"/>
<path fill-rule="evenodd" clip-rule="evenodd" d="M27.3263 18.0222C25.5398 18.0222 24.0869 16.569 24.0869 14.7828C24.0869 14.5144 24.3045 14.2971 24.5726 14.2971C24.8407 14.2971 25.0583 14.5144 25.0583 14.7828C25.0583 16.0331 26.0758 17.0508 27.3263 17.0508C28.5769 17.0508 29.5943 16.0331 29.5943 14.7828C29.5943 14.5144 29.8119 14.2971 30.08 14.2971C30.3481 14.2971 30.5657 14.5144 30.5657 14.7828C30.5657 16.569 29.1124 18.0222 27.3263 18.0222Z" fill="#60241C"/>
<path fill-rule="evenodd" clip-rule="evenodd" d="M13.0639 18.0222C11.2774 18.0222 9.82446 16.569 9.82446 14.7828C9.82446 14.5144 10.0417 14.2971 10.3102 14.2971C10.5783 14.2971 10.7959 14.5144 10.7959 14.7828C10.7959 16.0331 11.8133 17.0508 13.0639 17.0508C14.3141 17.0508 15.3315 16.0331 15.3315 14.7828C15.3315 14.5144 15.5491 14.2971 15.8172 14.2971C16.0856 14.2971 16.3029 14.5144 16.3029 14.7828C16.3029 16.569 14.85 18.0222 13.0639 18.0222Z" fill="#60241C"/>
<path fill-rule="evenodd" clip-rule="evenodd" d="M22.0446 23.4453C21.7765 23.4453 21.5589 23.2277 21.5589 22.9596C21.5589 22.2077 20.9472 21.5957 20.1947 21.5957C19.4428 21.5957 18.8308 22.2077 18.8308 22.9596C18.8308 23.2277 18.6135 23.4453 18.3451 23.4453C18.077 23.4453 17.8594 23.2277 17.8594 22.9596C17.8594 21.6721 18.9072 20.6243 20.1947 20.6243C21.4828 20.6243 22.5303 21.6721 22.5303 22.9596C22.5303 23.2277 22.3127 23.4453 22.0446 23.4453Z" fill="#60241C"/>
<path fill-rule="evenodd" clip-rule="evenodd" d="M39.2046 13.6368C39.2046 15.2374 37.9071 16.5352 36.3065 16.5352C34.7059 16.5352 33.4081 15.2374 33.4081 13.6368C33.4081 12.0362 34.7059 7.8147 36.3065 7.8147C37.9071 7.8147 39.2046 12.0362 39.2046 13.6368Z" fill="#56A6CA"/>
</svg>
