<svg width="40" height="40" viewBox="0 0 40 40" fill="none" xmlns="http://www.w3.org/2000/svg">
<path fill-rule="evenodd" clip-rule="evenodd" d="M36.39 20.2866C36.39 29.2308 29.1393 36.4816 20.195 36.4816C11.2507 36.4816 4 29.2308 4 20.2866C4 11.3423 11.2507 31.4088 20.195 31.4088C29.1393 31.4088 36.39 11.3423 36.39 20.2866Z" fill="#6866C1"/>
<path fill-rule="evenodd" clip-rule="evenodd" d="M36.39 19.195C36.39 28.139 29.1393 34.7421 20.195 34.7421C11.2507 34.7421 4 28.139 4 19.195C4 10.2504 11.2507 3 20.195 3C29.1393 3 36.39 10.2504 36.39 19.195Z" fill="url(#paint0_linear_49_1752)"/>
<path fill-rule="evenodd" clip-rule="evenodd" d="M18.3451 23.875C18.3451 24.8963 19.1734 25.7246 20.195 25.7246C21.2163 25.7246 22.0446 24.9371 22.0446 23.9158V23.875L22.0171 23.8028C21.6939 22.9602 21.704 22.0267 22.0446 21.1913C22.0446 20.1697 21.2163 19.3417 20.195 19.3417C19.1734 19.3417 18.3451 20.1697 18.3451 21.1913L18.3891 21.2547C18.9357 22.0478 18.9182 23.1008 18.3451 23.875Z" fill="#E788AE"/>
<path fill-rule="evenodd" clip-rule="evenodd" d="M18.8385 24.0152C18.9088 24.7017 19.4903 25.2389 20.1949 25.2389C20.9439 25.2389 21.5336 24.6823 21.5582 23.9631C21.0087 23.0477 21.1272 21.9603 21.5566 21.1058C21.5122 20.3934 20.9183 19.8271 20.1949 19.8271C19.4897 19.8271 18.9075 20.3653 18.8382 21.0527C19.4197 21.9558 19.4171 23.1154 18.8385 24.0152ZM20.1949 26.2103C18.9071 26.2103 17.8596 25.1625 17.8596 23.8747C17.8596 23.7708 17.8933 23.6694 17.9548 23.5859C18.4046 22.9784 18.4182 22.1524 17.9895 21.5306L17.9451 21.4662C17.8894 21.3853 17.8596 21.2894 17.8596 21.1913C17.8596 19.9035 18.9071 18.8557 20.1949 18.8557C21.483 18.8557 22.5306 19.9035 22.5306 21.1913C22.5306 21.2541 22.5244 21.3195 22.4946 21.3746C22.0863 22.1184 22.0863 22.8994 22.4703 23.6289L22.4979 23.6998C22.5196 23.7559 22.5306 23.8151 22.5306 23.8747V23.9158C22.5306 25.2023 21.5047 26.2103 20.1949 26.2103Z" fill="#60241C"/>
<path fill-rule="evenodd" clip-rule="evenodd" d="M13.4711 19.4045C13.4711 20.4385 12.2208 21.2768 10.6785 21.2768C9.13622 21.2768 7.88599 20.4385 7.88599 19.4045C7.88599 18.3706 9.13622 17.5326 10.6785 17.5326C12.2208 17.5326 13.4711 18.3706 13.4711 19.4045Z" fill="#E788AE"/>
<path fill-rule="evenodd" clip-rule="evenodd" d="M31.9823 19.4045C31.9823 20.4385 30.7321 21.2768 29.1898 21.2768C27.6478 21.2768 26.3972 20.4385 26.3972 19.4045C26.3972 18.3706 27.6478 17.5326 29.1898 17.5326C30.7321 17.5326 31.9823 18.3706 31.9823 19.4045Z" fill="#E788AE"/>
<path fill-rule="evenodd" clip-rule="evenodd" d="M10.6478 26.1077C10.3794 26.1077 10.1621 25.8901 10.1621 25.622V19.604C10.1621 19.3356 10.3794 19.1183 10.6478 19.1183C10.9159 19.1183 11.1335 19.3356 11.1335 19.604V25.622C11.1335 25.8901 10.9159 26.1077 10.6478 26.1077Z" fill="#60241C"/>
<path fill-rule="evenodd" clip-rule="evenodd" d="M12.1367 26.1077C11.8686 26.1077 11.651 25.8901 11.651 25.622V22.3968C11.651 22.1287 11.8686 21.9111 12.1367 21.9111C12.4052 21.9111 12.6224 22.1287 12.6224 22.3968V25.622C12.6224 25.8901 12.4052 26.1077 12.1367 26.1077Z" fill="#60241C"/>
<path fill-rule="evenodd" clip-rule="evenodd" d="M9.22046 26.1077C8.95202 26.1077 8.73474 25.8901 8.73474 25.622V22.3968C8.73474 22.1287 8.95202 21.9111 9.22046 21.9111C9.48889 21.9111 9.70617 22.1287 9.70617 22.3968V25.622C9.70617 25.8901 9.48889 26.1077 9.22046 26.1077Z" fill="#60241C"/>
<path fill-rule="evenodd" clip-rule="evenodd" d="M14.8884 14.639C14.8884 16.0868 13.7146 17.2603 12.2672 17.2603C10.8191 17.2603 9.64563 16.0868 9.64563 14.639C9.64563 13.1913 10.8191 12.0175 12.2672 12.0175C13.7146 12.0175 14.8884 13.1913 14.8884 14.639Z" fill="#FFFFFE"/>
<path fill-rule="evenodd" clip-rule="evenodd" d="M12.2672 12.5032C11.0895 12.5032 10.1313 13.4613 10.1313 14.639C10.1313 15.8167 11.0895 16.7745 12.2672 16.7745C13.4446 16.7745 14.4027 15.8167 14.4027 14.639C14.4027 13.4613 13.4446 12.5032 12.2672 12.5032ZM12.2672 17.746C10.5539 17.746 9.15991 16.3523 9.15991 14.639C9.15991 12.9257 10.5539 11.5317 12.2672 11.5317C13.9805 11.5317 15.3741 12.9257 15.3741 14.639C15.3741 16.3523 13.9805 17.746 12.2672 17.746Z" fill="#60241C"/>
<path fill-rule="evenodd" clip-rule="evenodd" d="M30.223 14.639C30.223 16.0868 29.0492 17.2603 27.6014 17.2603C26.1537 17.2603 24.9799 16.0868 24.9799 14.639C24.9799 13.1913 26.1537 12.0175 27.6014 12.0175C29.0492 12.0175 30.223 13.1913 30.223 14.639Z" fill="#FFFFFE"/>
<path fill-rule="evenodd" clip-rule="evenodd" d="M27.6015 12.5032C26.4238 12.5032 25.4659 13.4613 25.4659 14.639C25.4659 15.8167 26.4238 16.7745 27.6015 16.7745C28.7792 16.7745 29.7373 15.8167 29.7373 14.639C29.7373 13.4613 28.7792 12.5032 27.6015 12.5032ZM27.6015 17.746C25.8882 17.746 24.4945 16.3523 24.4945 14.639C24.4945 12.9257 25.8882 11.5317 27.6015 11.5317C29.3147 11.5317 30.7087 12.9257 30.7087 14.639C30.7087 16.3523 29.3147 17.746 27.6015 17.746Z" fill="#60241C"/>
<defs>
<linearGradient id="paint0_linear_49_1752" x1="1612.48" y1="-1362.72" x2="1636.33" y2="5363.27" gradientUnits="userSpaceOnUse">
<stop stop-color="#979FEE"/>
<stop offset="1" stop-color="#7D6DE0"/>
</linearGradient>
</defs>
</svg>
