<svg width="40" height="40" viewBox="0 0 40 40" fill="none" xmlns="http://www.w3.org/2000/svg">
<path fill-rule="evenodd" clip-rule="evenodd" d="M36.3897 20.2865C36.3897 29.2308 29.1393 36.4816 20.1947 36.4816C11.2504 36.4816 4 29.2308 4 20.2865C4 11.3426 11.2504 31.4091 20.1947 31.4091C29.1393 31.4091 36.3897 11.3426 36.3897 20.2865Z" fill="#518FB1"/>
<path fill-rule="evenodd" clip-rule="evenodd" d="M36.3897 19.195C36.3897 28.1393 29.1393 34.7424 20.1947 34.7424C11.2504 34.7424 4 28.1393 4 19.195C4 10.2507 11.2504 3 20.1947 3C29.1393 3 36.3897 10.2507 36.3897 19.195Z" fill="url(#paint0_linear_48_1250)"/>
<path fill-rule="evenodd" clip-rule="evenodd" d="M22.3052 23.7009C22.0371 23.7009 21.8195 23.4833 21.8195 23.2152C21.8195 22.4629 21.2075 21.8509 20.4556 21.8509C19.7034 21.8509 19.0914 22.4629 19.0914 23.2152C19.0914 23.4833 18.8741 23.7009 18.6057 23.7009C18.3376 23.7009 18.12 23.4833 18.12 23.2152C18.12 21.9274 19.1678 20.8795 20.4556 20.8795C21.7434 20.8795 22.7909 21.9274 22.7909 23.2152C22.7909 23.4833 22.5737 23.7009 22.3052 23.7009Z" fill="#60241C"/>
<path fill-rule="evenodd" clip-rule="evenodd" d="M15.1487 16.6628C15.1487 18.1106 13.9752 19.2844 12.5278 19.2844C11.0797 19.2844 9.90625 18.1106 9.90625 16.6628C9.90625 15.2151 11.0797 14.0413 12.5278 14.0413C13.9752 14.0413 15.1487 15.2151 15.1487 16.6628Z" fill="#60241C"/>
<path fill-rule="evenodd" clip-rule="evenodd" d="M14.7566 15.6649C14.7566 16.296 14.2453 16.8073 13.6142 16.8073C12.9834 16.8073 12.4718 16.296 12.4718 15.6649C12.4718 15.0338 12.9834 14.5225 13.6142 14.5225C14.2453 14.5225 14.7566 15.0338 14.7566 15.6649Z" fill="#FFFEF6"/>
<path fill-rule="evenodd" clip-rule="evenodd" d="M12.4809 17.8052C12.4809 18.1209 12.2251 18.3764 11.9097 18.3764C11.5943 18.3764 11.3385 18.1209 11.3385 17.8052C11.3385 17.4898 11.5943 17.234 11.9097 17.234C12.2251 17.234 12.4809 17.4898 12.4809 17.8052Z" fill="#FFFEF6"/>
<path fill-rule="evenodd" clip-rule="evenodd" d="M30.4837 16.6628C30.4837 18.1106 29.3099 19.2844 27.8622 19.2844C26.4141 19.2844 25.2406 18.1106 25.2406 16.6628C25.2406 15.2151 26.4141 14.0413 27.8622 14.0413C29.3099 14.0413 30.4837 15.2151 30.4837 16.6628Z" fill="#60241C"/>
<path fill-rule="evenodd" clip-rule="evenodd" d="M30.0916 15.6649C30.0916 16.296 29.58 16.8073 28.9492 16.8073C28.3178 16.8073 27.8062 16.296 27.8062 15.6649C27.8062 15.0338 28.3178 14.5225 28.9492 14.5225C29.58 14.5225 30.0916 15.0338 30.0916 15.6649Z" fill="#FFFEF6"/>
<path fill-rule="evenodd" clip-rule="evenodd" d="M27.8156 17.8052C27.8156 18.1209 27.5598 18.3764 27.2444 18.3764C26.9287 18.3764 26.6729 18.1209 26.6729 17.8052C26.6729 17.4898 26.9287 17.234 27.2444 17.234C27.5598 17.234 27.8156 17.4898 27.8156 17.8052Z" fill="#FFFEF6"/>
<path fill-rule="evenodd" clip-rule="evenodd" d="M13.7318 21.4287C13.7318 22.4623 12.4815 23.3006 10.9392 23.3006C9.39692 23.3006 8.14636 22.4623 8.14636 21.4287C8.14636 20.3944 9.39692 19.5564 10.9392 19.5564C12.4815 19.5564 13.7318 20.3944 13.7318 21.4287Z" fill="#E788AE"/>
<path fill-rule="evenodd" clip-rule="evenodd" d="M32.243 21.4287C32.243 22.4623 30.9928 23.3006 29.4505 23.3006C27.9081 23.3006 26.6576 22.4623 26.6576 21.4287C26.6576 20.3944 27.9081 19.5564 29.4505 19.5564C30.9928 19.5564 32.243 20.3944 32.243 21.4287Z" fill="#E788AE"/>
<defs>
<linearGradient id="paint0_linear_48_1250" x1="1612.46" y1="-1362.73" x2="1636.31" y2="5363.32" gradientUnits="userSpaceOnUse">
<stop stop-color="#A6CDE7"/>
<stop offset="1" stop-color="#66B8EA"/>
</linearGradient>
</defs>
</svg>
