<svg width="40" height="40" viewBox="0 0 40 40" fill="none" xmlns="http://www.w3.org/2000/svg">
<path fill-rule="evenodd" clip-rule="evenodd" d="M36.3897 20.2866C36.3897 29.2308 29.1393 36.4816 20.1947 36.4816C11.2504 36.4816 4 29.2308 4 20.2866C4 11.3423 11.2504 31.4088 20.1947 31.4088C29.1393 31.4088 36.3897 11.3423 36.3897 20.2866Z" fill="#DB8C00"/>
<path fill-rule="evenodd" clip-rule="evenodd" d="M36.3897 19.195C36.3897 28.139 29.1393 34.7421 20.1947 34.7421C11.2504 34.7421 4 28.139 4 19.195C4 10.2504 11.2504 3 20.1947 3C29.1393 3 36.3897 10.2504 36.3897 19.195Z" fill="#FFC359"/>
<path fill-rule="evenodd" clip-rule="evenodd" d="M17.4032 20.2157H22.9824L21.921 23.662L20.2482 22.2719L18.1846 23.662L17.4032 20.2157Z" fill="#60241C"/>
<path fill-rule="evenodd" clip-rule="evenodd" d="M13.7318 19.6739C13.7318 20.7079 12.4815 21.5462 10.9392 21.5462C9.39692 21.5462 8.14636 20.7079 8.14636 19.6739C8.14636 18.64 9.39692 17.802 10.9392 17.802C12.4815 17.802 13.7318 18.64 13.7318 19.6739Z" fill="#E788AE"/>
<path fill-rule="evenodd" clip-rule="evenodd" d="M32.243 19.6739C32.243 20.7079 30.9928 21.5462 29.4505 21.5462C27.9081 21.5462 26.6576 20.7079 26.6576 19.6739C26.6576 18.64 27.9081 17.802 29.4505 17.802C30.9928 17.802 32.243 18.64 32.243 19.6739Z" fill="#E788AE"/>
<path fill-rule="evenodd" clip-rule="evenodd" d="M15.8171 16.5045C15.549 16.5045 15.3314 16.2872 15.3314 16.0188C15.3314 14.7683 14.314 13.7508 13.0637 13.7508C11.8132 13.7508 10.7958 14.7683 10.7958 16.0188C10.7958 16.2872 10.5782 16.5045 10.3101 16.5045C10.0416 16.5045 9.82434 16.2872 9.82434 16.0188C9.82434 14.2327 11.2773 12.7794 13.0637 12.7794C14.8499 12.7794 16.3028 14.2327 16.3028 16.0188C16.3028 16.2872 16.0855 16.5045 15.8171 16.5045Z" fill="#60241C"/>
<path fill-rule="evenodd" clip-rule="evenodd" d="M30.08 16.5045C29.8115 16.5045 29.5943 16.2872 29.5943 16.0188C29.5943 14.7683 28.5765 13.7508 27.3263 13.7508C26.0758 13.7508 25.0583 14.7683 25.0583 16.0188C25.0583 16.2872 24.8407 16.5045 24.5726 16.5045C24.3042 16.5045 24.0869 16.2872 24.0869 16.0188C24.0869 14.2327 25.5398 12.7794 27.3263 12.7794C29.1124 12.7794 30.5657 14.2327 30.5657 16.0188C30.5657 16.2872 30.3481 16.5045 30.08 16.5045Z" fill="#60241C"/>
<path fill-rule="evenodd" clip-rule="evenodd" d="M22.9866 19.7041C22.9866 21.2458 22.5116 24.4767 20.1948 24.4767C17.9339 24.4767 17.4032 21.2458 17.4032 19.7041H22.9866Z" fill="#E788AE"/>
<path fill-rule="evenodd" clip-rule="evenodd" d="M17.9074 20.1894C18.0055 21.5747 18.5233 23.991 20.1948 23.991C22.0334 23.991 22.4064 21.3166 22.4818 20.1894H17.9074ZM20.1948 24.9624C17.6078 24.9624 16.9175 21.6569 16.9175 19.7037C16.9175 19.4356 17.1348 19.218 17.4032 19.218H22.9866C23.2551 19.218 23.4724 19.4356 23.4724 19.7037C23.4724 22.1297 22.6139 24.9624 20.1948 24.9624Z" fill="#60241C"/>
<path fill-rule="evenodd" clip-rule="evenodd" d="M21.921 24.1017C21.6522 24.1017 21.4352 23.8841 21.4352 23.616C21.4352 22.8968 20.8197 22.5695 20.2482 22.5695C19.6766 22.5695 19.0614 22.8929 19.0614 23.6034C19.0614 23.8718 18.8444 24.0891 18.5757 24.0891C18.3076 24.0891 18.09 23.8718 18.09 23.6034C18.09 22.4603 19.018 21.598 20.2482 21.598C21.4786 21.598 22.4067 22.4655 22.4067 23.616C22.4067 23.8841 22.1891 24.1017 21.921 24.1017Z" fill="#60241C"/>
</svg>
