<svg width="40" height="40" viewBox="0 0 40 40" fill="none" xmlns="http://www.w3.org/2000/svg">
<path fill-rule="evenodd" clip-rule="evenodd" d="M36.3897 20.2866C36.3897 29.2308 29.1393 36.4816 20.195 36.4816C11.2511 36.4816 4 29.2308 4 20.2866C4 11.3423 11.2511 31.4088 20.195 31.4088C29.1393 31.4088 36.3897 11.3423 36.3897 20.2866Z" fill="#DB8C00"/>
<path fill-rule="evenodd" clip-rule="evenodd" d="M36.3897 19.195C36.3897 28.139 29.1393 34.7421 20.195 34.7421C11.2511 34.7421 4 28.139 4 19.195C4 10.2504 11.2511 3 20.195 3C29.1393 3 36.3897 10.2504 36.3897 19.195Z" fill="#FFC359"/>
<path fill-rule="evenodd" clip-rule="evenodd" d="M18.6064 23.7009C17.3183 23.7009 16.2708 22.653 16.2708 21.3652C16.2708 21.0971 16.4884 20.8795 16.7565 20.8795C17.0249 20.8795 17.2422 21.0971 17.2422 21.3652C17.2422 22.1174 17.8539 22.7294 18.6064 22.7294C19.3583 22.7294 19.97 22.1174 19.97 21.3652C19.97 21.0971 20.1876 20.8795 20.4557 20.8795C20.7244 20.8795 20.9414 21.0971 20.9414 21.3652C20.9414 22.653 19.8939 23.7009 18.6064 23.7009Z" fill="#60241C"/>
<path fill-rule="evenodd" clip-rule="evenodd" d="M22.3056 23.7009C21.0178 23.7009 19.97 22.653 19.97 21.3652C19.97 21.0971 20.1876 20.8795 20.4557 20.8795C20.7244 20.8795 20.9414 21.0971 20.9414 21.3652C20.9414 22.1174 21.5534 22.7294 22.3056 22.7294C23.0578 22.7294 23.6695 22.1174 23.6695 21.3652C23.6695 21.0971 23.8868 20.8795 24.1552 20.8795C24.4233 20.8795 24.6409 21.0971 24.6409 21.3652C24.6409 22.653 23.5934 23.7009 22.3056 23.7009Z" fill="#60241C"/>
<path fill-rule="evenodd" clip-rule="evenodd" d="M15.1494 16.6628C15.1494 18.1106 13.9756 19.2841 12.5278 19.2841C11.0797 19.2841 9.90625 18.1106 9.90625 16.6628C9.90625 15.2147 11.0797 14.0413 12.5278 14.0413C13.9756 14.0413 15.1494 15.2147 15.1494 16.6628Z" fill="#60241C"/>
<path fill-rule="evenodd" clip-rule="evenodd" d="M14.7573 15.6648C14.7573 16.2956 14.2456 16.8072 13.6148 16.8072C12.9834 16.8072 12.4718 16.2956 12.4718 15.6648C12.4718 15.0337 12.9834 14.5221 13.6148 14.5221C14.2456 14.5221 14.7573 15.0337 14.7573 15.6648Z" fill="#FFFEF6"/>
<path fill-rule="evenodd" clip-rule="evenodd" d="M12.4812 17.8052C12.4812 18.1209 12.2251 18.3764 11.91 18.3764C11.5943 18.3764 11.3385 18.1209 11.3385 17.8052C11.3385 17.4898 11.5943 17.234 11.91 17.234C12.2251 17.234 12.4812 17.4898 12.4812 17.8052Z" fill="#FFFEF6"/>
<path fill-rule="evenodd" clip-rule="evenodd" d="M30.4838 16.6628C30.4838 18.1106 29.31 19.2841 27.8625 19.2841C26.4148 19.2841 25.241 18.1106 25.241 16.6628C25.241 15.2147 26.4148 14.0413 27.8625 14.0413C29.31 14.0413 30.4838 15.2147 30.4838 16.6628Z" fill="#60241C"/>
<path fill-rule="evenodd" clip-rule="evenodd" d="M30.0916 15.6648C30.0916 16.2956 29.5799 16.8072 28.9492 16.8072C28.3181 16.8072 27.8068 16.2956 27.8068 15.6648C27.8068 15.0337 28.3181 14.5221 28.9492 14.5221C29.5799 14.5221 30.0916 15.0337 30.0916 15.6648Z" fill="#FFFEF6"/>
<path fill-rule="evenodd" clip-rule="evenodd" d="M27.8155 17.8052C27.8155 18.1209 27.5597 18.3764 27.2443 18.3764C26.9289 18.3764 26.6731 18.1209 26.6731 17.8052C26.6731 17.4898 26.9289 17.234 27.2443 17.234C27.5597 17.234 27.8155 17.4898 27.8155 17.8052Z" fill="#FFFEF6"/>
<path fill-rule="evenodd" clip-rule="evenodd" d="M13.732 21.4283C13.732 22.4623 12.4815 23.3006 10.9395 23.3006C9.39688 23.3006 8.14697 22.4623 8.14697 21.4283C8.14697 20.3944 9.39688 19.5564 10.9395 19.5564C12.4815 19.5564 13.732 20.3944 13.732 21.4283Z" fill="#E788AE"/>
<path fill-rule="evenodd" clip-rule="evenodd" d="M32.2433 21.4283C32.2433 22.4623 30.993 23.3006 29.4507 23.3006C27.9084 23.3006 26.6582 22.4623 26.6582 21.4283C26.6582 20.3944 27.9084 19.5564 29.4507 19.5564C30.993 19.5564 32.2433 20.3944 32.2433 21.4283Z" fill="#E788AE"/>
</svg>
