<svg width="40" height="40" viewBox="0 0 40 40" fill="none" xmlns="http://www.w3.org/2000/svg">
<path fill-rule="evenodd" clip-rule="evenodd" d="M36.39 20.2865C36.39 29.2308 29.1395 36.4816 20.1953 36.4816C11.2513 36.4816 4.00024 29.2308 4.00024 20.2865C4.00024 11.3426 11.2513 31.4091 20.1953 31.4091C29.1395 31.4091 36.39 11.3426 36.39 20.2865Z" fill="#DB8C00"/>
<path fill-rule="evenodd" clip-rule="evenodd" d="M36.3897 19.195C36.3897 28.1393 29.1393 34.7424 20.195 34.7424C11.2511 34.7424 4 28.1393 4 19.195C4 10.2507 11.2511 3 20.195 3C29.1393 3 36.3897 10.2507 36.3897 19.195Z" fill="#FFC359"/>
<path fill-rule="evenodd" clip-rule="evenodd" d="M20.4135 21.8318C20.2351 21.8318 20.0634 21.733 19.9783 21.5624C19.8588 21.3224 19.9566 21.0307 20.1969 20.9112C20.3908 20.8147 20.5356 20.6486 20.6042 20.443C20.6732 20.2374 20.6583 20.0175 20.5618 19.8235C20.3623 19.4227 19.8743 19.2595 19.4741 19.4586C19.2338 19.5784 18.9421 19.48 18.8229 19.24C18.7034 18.9998 18.8012 18.7083 19.0415 18.5888C19.9213 18.1517 20.9938 18.5108 21.4312 19.3909C21.8693 20.271 21.5093 21.3432 20.6295 21.781C20.5602 21.8156 20.486 21.8318 20.4135 21.8318Z" fill="#60241C"/>
<path fill-rule="evenodd" clip-rule="evenodd" d="M19.8336 24.306C19.5625 24.3064 19.2935 24.2435 19.0435 24.1195C18.8032 24.0004 18.7048 23.7092 18.8239 23.469C18.9431 23.2277 19.2345 23.13 19.4748 23.2494C19.6688 23.3456 19.8886 23.3608 20.0942 23.2912C20.2995 23.2219 20.4657 23.0768 20.5618 22.8826C20.6583 22.6883 20.6729 22.4687 20.6039 22.2631C20.5346 22.0578 20.3892 21.8917 20.1956 21.7959C19.955 21.6767 19.8566 21.3856 19.9757 21.145C20.0946 20.9047 20.3866 20.806 20.6266 20.9255C21.053 21.1366 21.372 21.5015 21.5242 21.9529C21.6764 22.404 21.6437 22.8874 21.4322 23.3139C21.2208 23.7403 20.8558 24.0596 20.4048 24.2118C20.2176 24.2746 20.0249 24.306 19.8336 24.306Z" fill="#60241C"/>
<path fill-rule="evenodd" clip-rule="evenodd" d="M13.7324 20.3313C13.7324 21.3649 12.4819 22.2032 10.9399 22.2032C9.39724 22.2032 8.14734 21.3649 8.14734 20.3313C8.14734 19.2973 9.39724 18.459 10.9399 18.459C12.4819 18.459 13.7324 19.2973 13.7324 20.3313Z" fill="#E788AE"/>
<path fill-rule="evenodd" clip-rule="evenodd" d="M32.2436 20.3313C32.2436 21.3649 30.9934 22.2032 29.4511 22.2032C27.9088 22.2032 26.6586 21.3649 26.6586 20.3313C26.6586 19.2973 27.9088 18.459 29.4511 18.459C30.9934 18.459 32.2436 19.2973 32.2436 20.3313Z" fill="#E788AE"/>
<path fill-rule="evenodd" clip-rule="evenodd" d="M15.8177 17.1618C15.5492 17.1618 15.3319 16.9442 15.3319 16.6761C15.3319 15.4255 14.3145 14.4081 13.064 14.4081C11.8134 14.4081 10.796 15.4255 10.796 16.6761C10.796 16.9442 10.5787 17.1618 10.3103 17.1618C10.0419 17.1618 9.82458 16.9442 9.82458 16.6761C9.82458 14.8896 11.2778 13.4367 13.064 13.4367C14.8501 13.4367 16.3034 14.8896 16.3034 16.6761C16.3034 16.9442 16.0858 17.1618 15.8177 17.1618Z" fill="#60241C"/>
<path fill-rule="evenodd" clip-rule="evenodd" d="M30.0802 17.1618C29.8118 17.1618 29.5945 16.9442 29.5945 16.6761C29.5945 15.4255 28.5771 14.4081 27.3266 14.4081C26.076 14.4081 25.0586 15.4255 25.0586 16.6761C25.0586 16.9442 24.841 17.1618 24.5729 17.1618C24.3044 17.1618 24.0872 16.9442 24.0872 16.6761C24.0872 14.8896 25.5404 13.4367 27.3266 13.4367C29.1127 13.4367 30.5659 14.8896 30.5659 16.6761C30.5659 16.9442 30.3483 17.1618 30.0802 17.1618Z" fill="#60241C"/>
</svg>
