<svg width="40" height="40" viewBox="0 0 40 40" fill="none" xmlns="http://www.w3.org/2000/svg">
<path fill-rule="evenodd" clip-rule="evenodd" d="M36.3896 20.2862C36.3896 29.2305 29.1392 36.4813 20.1946 36.4813C11.2503 36.4813 3.99988 29.2305 3.99988 20.2862C3.99988 11.3423 11.2503 31.4088 20.1946 31.4088C29.1392 31.4088 36.3896 11.3423 36.3896 20.2862Z" fill="#DB8C00"/>
<path fill-rule="evenodd" clip-rule="evenodd" d="M36.3897 19.1947C36.3897 28.139 29.1393 34.7421 20.1947 34.7421C11.2504 34.7421 4 28.139 4 19.1947C4 10.2504 11.2504 3 20.1947 3C29.1393 3 36.3897 10.2504 36.3897 19.1947Z" fill="#FFC359"/>
<path fill-rule="evenodd" clip-rule="evenodd" d="M18.6056 24.0829C17.3181 24.0829 16.2703 23.0354 16.2703 21.7473C16.2703 21.4791 16.4875 21.2615 16.756 21.2615C17.0241 21.2615 17.2417 21.4791 17.2417 21.7473C17.2417 22.4995 17.8537 23.1115 18.6056 23.1115C19.3578 23.1115 19.9698 22.4995 19.9698 21.7473C19.9698 21.4791 20.1871 21.2615 20.4555 21.2615C20.7236 21.2615 20.9412 21.4791 20.9412 21.7473C20.9412 23.0354 19.8937 24.0829 18.6056 24.0829Z" fill="#60241C"/>
<path fill-rule="evenodd" clip-rule="evenodd" d="M22.3052 24.0829C21.0174 24.0829 19.9698 23.0354 19.9698 21.7473C19.9698 21.4791 20.1871 21.2615 20.4556 21.2615C20.7237 21.2615 20.9413 21.4791 20.9413 21.7473C20.9413 22.4995 21.5533 23.1115 22.3052 23.1115C23.057 23.1115 23.669 22.4995 23.669 21.7473C23.669 21.4791 23.8866 21.2615 24.1548 21.2615C24.4232 21.2615 24.6405 21.4791 24.6405 21.7473C24.6405 23.0354 23.593 24.0829 22.3052 24.0829Z" fill="#60241C"/>
<path fill-rule="evenodd" clip-rule="evenodd" d="M13.7316 21.8101C13.7316 22.8444 12.4814 23.6827 10.9391 23.6827C9.39679 23.6827 8.14624 22.8444 8.14624 21.8101C8.14624 20.7765 9.39679 19.9382 10.9391 19.9382C12.4814 19.9382 13.7316 20.7765 13.7316 21.8101Z" fill="#E788AE"/>
<path fill-rule="evenodd" clip-rule="evenodd" d="M32.2429 21.8101C32.2429 22.8444 30.9926 23.6827 29.4503 23.6827C27.908 23.6827 26.6575 22.8444 26.6575 21.8101C26.6575 20.7765 27.908 19.9382 29.4503 19.9382C30.9926 19.9382 32.2429 20.7765 32.2429 21.8101Z" fill="#E788AE"/>
<path fill-rule="evenodd" clip-rule="evenodd" d="M31.2473 13.2738C30.2011 12.2445 28.5061 12.2445 27.46 13.2738L27.3667 13.3657L27.2733 13.2738C26.228 12.243 24.5322 12.2419 23.4856 13.2715C22.439 14.3011 22.4379 15.9714 23.4833 17.0023L23.5766 17.0942L25.9891 19.4713L26.5491 20.0229L26.5584 20.033L26.7974 20.2692C27.1115 20.5769 27.619 20.5769 27.9332 20.2692L28.1544 20.0514L28.7405 19.4741L31.1511 17.0979L31.2445 17.0059C31.7489 16.5122 32.0328 15.8409 32.0333 15.1404C32.0338 14.44 31.7509 13.7683 31.2473 13.2738Z" fill="#FA637E"/>
<path fill-rule="evenodd" clip-rule="evenodd" d="M29.8 15.9C29.8 16.3969 29.3969 16.8 28.9 16.8C28.4031 16.8 28 16.3969 28 15.9C28 15.4028 28.4031 15 28.9 15C29.3969 15 29.8 15.4028 29.8 15.9Z" fill="#FFFEF6"/>
<path fill-rule="evenodd" clip-rule="evenodd" d="M27.1815 17.6515C27.1815 17.845 27.025 18.0017 26.8315 18.0017C26.6383 18.0017 26.4813 17.845 26.4813 17.6515C26.4813 17.4582 26.6383 17.3017 26.8315 17.3017C27.025 17.3017 27.1815 17.4582 27.1815 17.6515Z" fill="#FFFEF6"/>
<path fill-rule="evenodd" clip-rule="evenodd" d="M17.2473 13.2738C16.2011 12.2445 14.5061 12.2445 13.46 13.2738L13.3667 13.3657L13.2733 13.2738C12.228 12.243 10.5322 12.2419 9.48559 13.2715C8.43898 14.3011 8.43794 15.9714 9.48325 17.0023L9.57658 17.0942L11.9891 19.4713L12.5491 20.0229L12.5584 20.033L12.7974 20.2692C13.1115 20.5769 13.619 20.5769 13.9332 20.2692L14.1544 20.0514L14.7405 19.4741L17.1511 17.0979L17.2445 17.0059C17.7489 16.5122 18.0328 15.8409 18.0333 15.1404C18.0338 14.44 17.7509 13.7683 17.2473 13.2738Z" fill="#FA637E"/>
<path fill-rule="evenodd" clip-rule="evenodd" d="M15.8 15.9C15.8 16.3969 15.3969 16.8 14.9 16.8C14.4031 16.8 14 16.3969 14 15.9C14 15.4028 14.4031 15 14.9 15C15.3969 15 15.8 15.4028 15.8 15.9Z" fill="#FFFEF6"/>
<path fill-rule="evenodd" clip-rule="evenodd" d="M13.1815 17.6515C13.1815 17.845 13.025 18.0017 12.8315 18.0017C12.6383 18.0017 12.4813 17.845 12.4813 17.6515C12.4813 17.4582 12.6383 17.3017 12.8315 17.3017C13.025 17.3017 13.1815 17.4582 13.1815 17.6515Z" fill="#FFFEF6"/>
</svg>
