<svg width="40" height="40" viewBox="0 0 40 40" fill="none" xmlns="http://www.w3.org/2000/svg">
<mask id="mask0_49_1817" style="mask-type:luminance" maskUnits="userSpaceOnUse" x="4" y="17" width="33" height="20">
<path d="M36.39 20.2866C36.39 29.2308 29.1393 36.4816 20.195 36.4816C11.2507 36.4816 4 29.2308 4 20.2866C4 11.3423 11.2507 31.4088 20.195 31.4088C29.1393 31.4088 36.39 11.3423 36.39 20.2866Z" fill="url(#paint0_linear_49_1817)"/>
</mask>
<g mask="url(#mask0_49_1817)">
<path fill-rule="evenodd" clip-rule="evenodd" d="M36.39 20.2866C36.39 29.2308 29.1393 36.4816 20.195 36.4816C11.2507 36.4816 4 29.2308 4 20.2866C4 11.3423 11.2507 31.4088 20.195 31.4088C29.1393 31.4088 36.39 11.3423 36.39 20.2866Z" fill="url(#paint1_linear_49_1817)"/>
</g>
<path fill-rule="evenodd" clip-rule="evenodd" d="M36.39 19.195C36.39 28.139 29.1393 34.7421 20.195 34.7421C11.2507 34.7421 4 28.139 4 19.195C4 10.2504 11.2507 3 20.195 3C29.1393 3 36.39 10.2504 36.39 19.195Z" fill="url(#paint2_linear_49_1817)"/>
<path fill-rule="evenodd" clip-rule="evenodd" d="M18.3451 23.875C18.3451 24.8963 19.1734 25.7246 20.195 25.7246C21.2163 25.7246 22.0446 24.9371 22.0446 23.9158V23.875L22.0171 23.8028C21.6939 22.9602 21.704 22.0267 22.0446 21.1913C22.0446 20.1697 21.2163 19.3417 20.195 19.3417C19.1734 19.3417 18.3451 20.1697 18.3451 21.1913L18.3891 21.2547C18.9357 22.0478 18.9182 23.1008 18.3451 23.875Z" fill="#E788AE"/>
<path fill-rule="evenodd" clip-rule="evenodd" d="M18.8385 24.0152C18.9088 24.7017 19.4903 25.2389 20.1949 25.2389C20.9439 25.2389 21.5336 24.6823 21.5582 23.9631C21.0087 23.0477 21.1272 21.9603 21.5566 21.1058C21.5122 20.3934 20.9183 19.8271 20.1949 19.8271C19.4897 19.8271 18.9075 20.3653 18.8382 21.0527C19.4197 21.9558 19.4171 23.1154 18.8385 24.0152ZM20.1949 26.2103C18.9071 26.2103 17.8596 25.1625 17.8596 23.8747C17.8596 23.7708 17.8933 23.6694 17.9548 23.5859C18.4046 22.9784 18.4182 22.1524 17.9895 21.5306L17.9451 21.4662C17.8894 21.3853 17.8596 21.2894 17.8596 21.1913C17.8596 19.9035 18.9071 18.8557 20.1949 18.8557C21.483 18.8557 22.5306 19.9035 22.5306 21.1913C22.5306 21.2541 22.5244 21.3195 22.4946 21.3746C22.0863 22.1184 22.0863 22.8994 22.4703 23.6289L22.4979 23.6998C22.5196 23.7559 22.5306 23.8151 22.5306 23.8747V23.9158C22.5306 25.2023 21.5047 26.2103 20.1949 26.2103Z" fill="#60241C"/>
<path fill-rule="evenodd" clip-rule="evenodd" d="M13.4711 19.4045C13.4711 20.4385 12.2208 21.2768 10.6785 21.2768C9.13622 21.2768 7.88599 20.4385 7.88599 19.4045C7.88599 18.3706 9.13622 17.5326 10.6785 17.5326C12.2208 17.5326 13.4711 18.3706 13.4711 19.4045Z" fill="#E788AE"/>
<path fill-rule="evenodd" clip-rule="evenodd" d="M31.9823 19.4045C31.9823 20.4385 30.7321 21.2768 29.1898 21.2768C27.6478 21.2768 26.3972 20.4385 26.3972 19.4045C26.3972 18.3706 27.6478 17.5326 29.1898 17.5326C30.7321 17.5326 31.9823 18.3706 31.9823 19.4045Z" fill="#E788AE"/>
<path fill-rule="evenodd" clip-rule="evenodd" d="M10.6478 26.1077C10.3794 26.1077 10.1621 25.8901 10.1621 25.622V19.604C10.1621 19.3356 10.3794 19.1183 10.6478 19.1183C10.9159 19.1183 11.1335 19.3356 11.1335 19.604V25.622C11.1335 25.8901 10.9159 26.1077 10.6478 26.1077Z" fill="#60241C"/>
<path fill-rule="evenodd" clip-rule="evenodd" d="M12.1367 26.1077C11.8686 26.1077 11.651 25.8901 11.651 25.622V22.3968C11.651 22.1287 11.8686 21.9111 12.1367 21.9111C12.4052 21.9111 12.6224 22.1287 12.6224 22.3968V25.622C12.6224 25.8901 12.4052 26.1077 12.1367 26.1077Z" fill="#60241C"/>
<path fill-rule="evenodd" clip-rule="evenodd" d="M9.22046 26.1077C8.95202 26.1077 8.73474 25.8901 8.73474 25.622V22.3968C8.73474 22.1287 8.95202 21.9111 9.22046 21.9111C9.48889 21.9111 9.70617 22.1287 9.70617 22.3968V25.622C9.70617 25.8901 9.48889 26.1077 9.22046 26.1077Z" fill="#60241C"/>
<path fill-rule="evenodd" clip-rule="evenodd" d="M14.8884 14.639C14.8884 16.0868 13.7146 17.2603 12.2672 17.2603C10.8191 17.2603 9.64563 16.0868 9.64563 14.639C9.64563 13.1913 10.8191 12.0175 12.2672 12.0175C13.7146 12.0175 14.8884 13.1913 14.8884 14.639Z" fill="#FFFFFE"/>
<path fill-rule="evenodd" clip-rule="evenodd" d="M12.2672 12.5032C11.0895 12.5032 10.1313 13.4613 10.1313 14.639C10.1313 15.8167 11.0895 16.7745 12.2672 16.7745C13.4446 16.7745 14.4027 15.8167 14.4027 14.639C14.4027 13.4613 13.4446 12.5032 12.2672 12.5032ZM12.2672 17.746C10.5539 17.746 9.15991 16.3523 9.15991 14.639C9.15991 12.9257 10.5539 11.5317 12.2672 11.5317C13.9805 11.5317 15.3741 12.9257 15.3741 14.639C15.3741 16.3523 13.9805 17.746 12.2672 17.746Z" fill="#60241C"/>
<path fill-rule="evenodd" clip-rule="evenodd" d="M30.223 14.639C30.223 16.0868 29.0492 17.2603 27.6014 17.2603C26.1537 17.2603 24.9799 16.0868 24.9799 14.639C24.9799 13.1913 26.1537 12.0175 27.6014 12.0175C29.0492 12.0175 30.223 13.1913 30.223 14.639Z" fill="#FFFFFE"/>
<path fill-rule="evenodd" clip-rule="evenodd" d="M27.6015 12.5032C26.4238 12.5032 25.4659 13.4613 25.4659 14.639C25.4659 15.8167 26.4238 16.7745 27.6015 16.7745C28.7792 16.7745 29.7373 15.8167 29.7373 14.639C29.7373 13.4613 28.7792 12.5032 27.6015 12.5032ZM27.6015 17.746C25.8882 17.746 24.4945 16.3523 24.4945 14.639C24.4945 12.9257 25.8882 11.5317 27.6015 11.5317C29.3147 11.5317 30.7087 12.9257 30.7087 14.639C30.7087 16.3523 29.3147 17.746 27.6015 17.746Z" fill="#60241C"/>
<path fill-rule="evenodd" clip-rule="evenodd" d="M36.3896 20.2866C36.3896 29.2308 29.1388 36.4816 20.1949 36.4816C11.2506 36.4816 3.99988 29.2308 3.99988 20.2866C3.99988 11.3423 11.2506 31.4088 20.1949 31.4088C29.1388 31.4088 36.3896 11.3423 36.3896 20.2866Z" fill="#DB8C00"/>
<path fill-rule="evenodd" clip-rule="evenodd" d="M36.3897 19.195C36.3897 28.1389 29.139 34.7424 20.195 34.7424C11.2507 34.7424 4 28.1389 4 19.195C4 10.2507 11.2507 3 20.195 3C29.139 3 36.3897 10.2507 36.3897 19.195Z" fill="#FFC359"/>
<path fill-rule="evenodd" clip-rule="evenodd" d="M20.4555 23.7008C19.1677 23.7008 18.1199 22.6533 18.1199 21.3655C18.1199 21.0974 18.3375 20.8798 18.6056 20.8798C18.874 20.8798 19.0913 21.0974 19.0913 21.3655C19.0913 22.1174 19.7033 22.7294 20.4555 22.7294C21.2077 22.7294 21.8194 22.1174 21.8194 21.3655C21.8194 21.0974 22.037 20.8798 22.3051 20.8798C22.5732 20.8798 22.7908 21.0974 22.7908 21.3655C22.7908 22.6533 21.7433 23.7008 20.4555 23.7008Z" fill="#60241C"/>
<path fill-rule="evenodd" clip-rule="evenodd" d="M15.149 16.6628C15.149 18.1106 13.9752 19.2841 12.5274 19.2841C11.0797 19.2841 9.90588 18.1106 9.90588 16.6628C9.90588 15.2151 11.0797 14.0413 12.5274 14.0413C13.9752 14.0413 15.149 15.2151 15.149 16.6628Z" fill="#60241C"/>
<path fill-rule="evenodd" clip-rule="evenodd" d="M14.7568 15.6648C14.7568 16.2956 14.2452 16.8072 13.6141 16.8072C12.9833 16.8072 12.4717 16.2956 12.4717 15.6648C12.4717 15.0337 12.9833 14.5221 13.6141 14.5221C14.2452 14.5221 14.7568 15.0337 14.7568 15.6648Z" fill="#FFFEF6"/>
<path fill-rule="evenodd" clip-rule="evenodd" d="M12.4804 17.8055C12.4804 18.1209 12.2249 18.3767 11.9095 18.3767C11.5938 18.3767 11.338 18.1209 11.338 17.8055C11.338 17.4898 11.5938 17.234 11.9095 17.234C12.2249 17.234 12.4804 17.4898 12.4804 17.8055Z" fill="#FFFEF6"/>
<path fill-rule="evenodd" clip-rule="evenodd" d="M30.4833 16.6628C30.4833 18.1106 29.3098 19.2841 27.8618 19.2841C26.4143 19.2841 25.2408 18.1106 25.2408 16.6628C25.2408 15.2151 26.4143 14.0413 27.8618 14.0413C29.3098 14.0413 30.4833 15.2151 30.4833 16.6628Z" fill="#60241C"/>
<path fill-rule="evenodd" clip-rule="evenodd" d="M30.0912 15.6648C30.0912 16.2956 29.5799 16.8072 28.9488 16.8072C28.318 16.8072 27.8064 16.2956 27.8064 15.6648C27.8064 15.0337 28.318 14.5221 28.9488 14.5221C29.5799 14.5221 30.0912 15.0337 30.0912 15.6648Z" fill="#FFFEF6"/>
<path fill-rule="evenodd" clip-rule="evenodd" d="M27.8155 17.8055C27.8155 18.1209 27.5597 18.3767 27.244 18.3767C26.9286 18.3767 26.6731 18.1209 26.6731 17.8055C26.6731 17.4898 26.9286 17.234 27.244 17.234C27.5597 17.234 27.8155 17.4898 27.8155 17.8055Z" fill="#FFFEF6"/>
<path fill-rule="evenodd" clip-rule="evenodd" d="M13.7317 21.4283C13.7317 22.4626 12.4814 23.3006 10.9391 23.3006C9.39684 23.3006 8.14661 22.4626 8.14661 21.4283C8.14661 20.3944 9.39684 19.5564 10.9391 19.5564C12.4814 19.5564 13.7317 20.3944 13.7317 21.4283Z" fill="#E788AE"/>
<path fill-rule="evenodd" clip-rule="evenodd" d="M32.2429 21.4283C32.2429 22.4626 30.9927 23.3006 29.4504 23.3006C27.9081 23.3006 26.6578 22.4626 26.6578 21.4283C26.6578 20.3944 27.9081 19.5564 29.4504 19.5564C30.9927 19.5564 32.2429 20.3944 32.2429 21.4283Z" fill="#E788AE"/>
<defs>
<linearGradient id="paint0_linear_49_1817" x1="1605.24" y1="5.19341" x2="1616.45" y2="1342.49" gradientUnits="userSpaceOnUse">
<stop stop-color="#0076AA"/>
<stop offset="1" stop-color="#0076AA"/>
</linearGradient>
<linearGradient id="paint1_linear_49_1817" x1="1605.24" y1="5.19341" x2="1616.45" y2="1342.49" gradientUnits="userSpaceOnUse">
<stop stop-color="#030095"/>
<stop offset="1" stop-color="#0300AA"/>
</linearGradient>
<linearGradient id="paint2_linear_49_1817" x1="1612.48" y1="-1362.72" x2="1636.33" y2="5363.27" gradientUnits="userSpaceOnUse">
<stop stop-color="#979FEE"/>
<stop offset="1" stop-color="#7D6DE0"/>
</linearGradient>
</defs>
</svg>
