<svg width="40" height="40" viewBox="0 0 40 40" fill="none" xmlns="http://www.w3.org/2000/svg">
<path fill-rule="evenodd" clip-rule="evenodd" d="M36.3901 20.2866C36.3901 29.2308 29.1391 36.4813 20.1951 36.4813C11.2509 36.4813 4.00012 29.2308 4.00012 20.2866C4.00012 11.3423 11.2509 31.4088 20.1951 31.4088C29.1391 31.4088 36.3901 11.3423 36.3901 20.2866Z" fill="#DB8C00"/>
<path fill-rule="evenodd" clip-rule="evenodd" d="M36.39 19.1947C36.39 28.139 29.139 34.7421 20.195 34.7421C11.2507 34.7421 4 28.139 4 19.1947C4 10.2504 11.2507 3 20.195 3C29.139 3 36.39 10.2504 36.39 19.1947Z" fill="#FFC359"/>
<path fill-rule="evenodd" clip-rule="evenodd" d="M13.7319 20.1859C13.7319 21.2195 12.4817 22.0578 10.9394 22.0578C9.3974 22.0578 8.14685 21.2195 8.14685 20.1859C8.14685 19.1519 9.3974 18.3136 10.9394 18.3136C12.4817 18.3136 13.7319 19.1519 13.7319 20.1859Z" fill="#E788AE"/>
<path fill-rule="evenodd" clip-rule="evenodd" d="M32.243 20.1859C32.243 21.2195 30.9928 22.0578 29.4505 22.0578C27.9085 22.0578 26.658 21.2195 26.658 20.1859C26.658 19.1519 27.9085 18.3136 29.4505 18.3136C30.9928 18.3136 32.243 19.1519 32.243 20.1859Z" fill="#E788AE"/>
<path fill-rule="evenodd" clip-rule="evenodd" d="M22.1066 24.7529C21.8385 24.7529 21.6209 24.5356 21.6209 24.2672C21.6209 23.4813 20.981 22.8414 20.1948 22.8414C19.4089 22.8414 18.7694 23.4813 18.7694 24.2672C18.7694 24.5356 18.5518 24.7529 18.2837 24.7529C18.0156 24.7529 17.798 24.5356 17.798 24.2672C17.798 22.9454 18.873 21.87 20.1948 21.87C21.5166 21.87 22.5923 22.9454 22.5923 24.2672C22.5923 24.5356 22.3747 24.7529 22.1066 24.7529Z" fill="#60241C"/>
<path fill-rule="evenodd" clip-rule="evenodd" d="M13.5509 30.9547H12.5768C11.325 30.9547 10.3102 29.9399 10.3102 28.6881V17.0987H15.8175V28.6881C15.8175 29.9399 14.8027 30.9547 13.5509 30.9547Z" fill="#5387B7"/>
<path fill-rule="evenodd" clip-rule="evenodd" d="M13.5509 30.3071H12.5768C11.325 30.3071 10.3102 29.2923 10.3102 28.0404V16.451H15.8175V28.0404C15.8175 29.2923 14.8027 30.3071 13.5509 30.3071Z" fill="url(#paint0_linear_49_1580)"/>
<path fill-rule="evenodd" clip-rule="evenodd" d="M27.4688 30.9547H26.4948C25.243 30.9547 24.2281 29.9399 24.2281 28.6881V17.0987H29.7355V28.6881C29.7355 29.9399 28.7207 30.9547 27.4688 30.9547Z" fill="#5387B7"/>
<path fill-rule="evenodd" clip-rule="evenodd" d="M27.4688 30.3071H26.4948C25.243 30.3071 24.2281 29.2923 24.2281 28.0404V16.451H29.7355V28.0404C29.7355 29.2923 28.7207 30.3071 27.4688 30.3071Z" fill="url(#paint1_linear_49_1580)"/>
<path fill-rule="evenodd" clip-rule="evenodd" d="M15.8175 16.4358H10.3102C10.0421 16.4358 9.82446 16.2186 9.82446 15.9501C9.82446 15.682 10.0421 15.4644 10.3102 15.4644H15.8175C16.0856 15.4644 16.3032 15.682 16.3032 15.9501C16.3032 16.2186 16.0856 16.4358 15.8175 16.4358Z" fill="#60241C"/>
<path fill-rule="evenodd" clip-rule="evenodd" d="M29.7355 16.4358H24.2281C23.96 16.4358 23.7424 16.2186 23.7424 15.9501C23.7424 15.682 23.96 15.4644 24.2281 15.4644H29.7355C30.0036 15.4644 30.2212 15.682 30.2212 15.9501C30.2212 16.2186 30.0036 16.4358 29.7355 16.4358Z" fill="#60241C"/>
<defs>
<linearGradient id="paint0_linear_49_1580" x1="10.3069" y1="559.253" x2="561.036" y2="559.253" gradientUnits="userSpaceOnUse">
<stop stop-color="#679BBE"/>
<stop offset="1" stop-color="#347FAD"/>
</linearGradient>
<linearGradient id="paint1_linear_49_1580" x1="24.2281" y1="559.253" x2="574.957" y2="559.253" gradientUnits="userSpaceOnUse">
<stop stop-color="#679BBE"/>
<stop offset="1" stop-color="#347FAD"/>
</linearGradient>
</defs>
</svg>
