<svg width="40" height="40" viewBox="0 0 40 40" fill="none" xmlns="http://www.w3.org/2000/svg">
<path fill-rule="evenodd" clip-rule="evenodd" d="M36.3897 20.2868C36.3897 29.2308 29.1393 36.4815 20.195 36.4815C11.2511 36.4815 4 29.2308 4 20.2868C4 11.3426 11.2511 31.4087 20.195 31.4087C29.1393 31.4087 36.3897 11.3426 36.3897 20.2868Z" fill="#DB8C00"/>
<path fill-rule="evenodd" clip-rule="evenodd" d="M36.3897 19.195C36.3897 28.1393 29.1393 34.7421 20.195 34.7421C11.2511 34.7421 4 28.1393 4 19.195C4 10.2507 11.2511 3 20.195 3C29.1393 3 36.3897 10.2507 36.3897 19.195Z" fill="#FFC359"/>
<path fill-rule="evenodd" clip-rule="evenodd" d="M13.732 21.1913C13.732 22.2252 12.4815 23.0635 10.9395 23.0635C9.39688 23.0635 8.14697 22.2252 8.14697 21.1913C8.14697 20.1574 9.39688 19.3193 10.9395 19.3193C12.4815 19.3193 13.732 20.1574 13.732 21.1913Z" fill="#E788AE"/>
<path fill-rule="evenodd" clip-rule="evenodd" d="M32.2433 21.1913C32.2433 22.2252 30.993 23.0635 29.4507 23.0635C27.9084 23.0635 26.6582 22.2252 26.6582 21.1913C26.6582 20.1574 27.9084 19.3193 29.4507 19.3193C30.993 19.3193 32.2433 20.1574 32.2433 21.1913Z" fill="#E788AE"/>
<path fill-rule="evenodd" clip-rule="evenodd" d="M15.8174 18.0222C15.549 18.0222 15.3317 17.8046 15.3317 17.5365C15.3317 16.2856 14.3146 15.2685 13.0637 15.2685C11.8135 15.2685 10.7958 16.2856 10.7958 17.5365C10.7958 17.8046 10.5788 18.0222 10.3101 18.0222C10.0419 18.0222 9.82434 17.8046 9.82434 17.5365C9.82434 15.7501 11.2779 14.2971 13.0637 14.2971C14.8502 14.2971 16.3031 15.7501 16.3031 17.5365C16.3031 17.8046 16.0855 18.0222 15.8174 18.0222Z" fill="#60241C"/>
<path fill-rule="evenodd" clip-rule="evenodd" d="M30.08 18.0222C29.8119 18.0222 29.5943 17.8046 29.5943 17.5365C29.5943 16.2856 28.5772 15.2685 27.3263 15.2685C26.0761 15.2685 25.0583 16.2856 25.0583 17.5365C25.0583 17.8046 24.8411 18.0222 24.5726 18.0222C24.3045 18.0222 24.0869 17.8046 24.0869 17.5365C24.0869 15.7501 25.5405 14.2971 27.3263 14.2971C29.1128 14.2971 30.5657 15.7501 30.5657 17.5365C30.5657 17.8046 30.3484 18.0222 30.08 18.0222Z" fill="#60241C"/>
<path fill-rule="evenodd" clip-rule="evenodd" d="M20.1954 23.4456C18.9073 23.4456 17.8597 22.3978 17.8597 21.11C17.8597 20.8419 18.0773 20.6243 18.3455 20.6243C18.6139 20.6243 18.8312 20.8419 18.8312 21.11C18.8312 21.8622 19.4432 22.4742 20.1954 22.4742C20.9473 22.4742 21.5593 21.8622 21.5593 21.11C21.5593 20.8419 21.7769 20.6243 22.045 20.6243C22.3134 20.6243 22.5307 20.8419 22.5307 21.11C22.5307 22.3978 21.4828 23.4456 20.1954 23.4456Z" fill="#60241C"/>
</svg>
