<svg width="40" height="40" viewBox="0 0 40 40" fill="none" xmlns="http://www.w3.org/2000/svg">
<path fill-rule="evenodd" clip-rule="evenodd" d="M36.3884 20.2866C36.3884 29.2308 29.1374 36.4816 20.1931 36.4816C11.2492 36.4816 3.99841 29.2308 3.99841 20.2866C3.99841 11.3423 11.2492 31.4088 20.1931 31.4088C29.1374 31.4088 36.3884 11.3423 36.3884 20.2866Z" fill="#DB8C00"/>
<path fill-rule="evenodd" clip-rule="evenodd" d="M36.3884 19.1947C36.3884 28.1389 29.1374 34.7424 20.1931 34.7424C11.2492 34.7424 3.99841 28.1389 3.99841 19.1947C3.99841 10.2507 11.2492 3 20.1931 3C29.1374 3 36.3884 10.2507 36.3884 19.1947Z" fill="#FFC359"/>
<path fill-rule="evenodd" clip-rule="evenodd" d="M6.89682 12.3451C6.89682 13.9457 5.59899 15.2432 3.9984 15.2432C2.39748 15.2432 1.09998 13.9457 1.09998 12.3451C1.09998 10.7445 2.39748 6.52271 3.9984 6.52271C5.59899 6.52271 6.89682 10.7445 6.89682 12.3451Z" fill="#56A6CA"/>
<path fill-rule="evenodd" clip-rule="evenodd" d="M14.8867 14.9308C14.8867 16.3789 13.7132 17.5524 12.2652 17.5524C10.8174 17.5524 9.64392 16.3789 9.64392 14.9308C9.64392 13.4834 10.8174 12.3096 12.2652 12.3096C13.7132 12.3096 14.8867 13.4834 14.8867 14.9308Z" fill="#60241C"/>
<path fill-rule="evenodd" clip-rule="evenodd" d="M14.4946 13.9328C14.4946 14.5639 13.9833 15.0755 13.3519 15.0755C12.7211 15.0755 12.2095 14.5639 12.2095 13.9328C12.2095 13.302 12.7211 12.7904 13.3519 12.7904C13.9833 12.7904 14.4946 13.302 14.4946 13.9328Z" fill="#FFFEF6"/>
<path fill-rule="evenodd" clip-rule="evenodd" d="M12.2186 16.0735C12.2186 16.3889 11.9628 16.6447 11.6474 16.6447C11.3317 16.6447 11.0762 16.3889 11.0762 16.0735C11.0762 15.7581 11.3317 15.5023 11.6474 15.5023C11.9628 15.5023 12.2186 15.7581 12.2186 16.0735Z" fill="#FFFEF6"/>
<path fill-rule="evenodd" clip-rule="evenodd" d="M30.2211 14.9308C30.2211 16.3789 29.0476 17.5524 27.5999 17.5524C26.1521 17.5524 24.9786 16.3789 24.9786 14.9308C24.9786 13.4834 26.1521 12.3096 27.5999 12.3096C29.0476 12.3096 30.2211 13.4834 30.2211 14.9308Z" fill="#60241C"/>
<path fill-rule="evenodd" clip-rule="evenodd" d="M29.8289 13.9328C29.8289 14.5639 29.3177 15.0755 28.6865 15.0755C28.0558 15.0755 27.5438 14.5639 27.5438 13.9328C27.5438 13.302 28.0558 12.7904 28.6865 12.7904C29.3177 12.7904 29.8289 13.302 29.8289 13.9328Z" fill="#FFFEF6"/>
<path fill-rule="evenodd" clip-rule="evenodd" d="M27.5532 16.0735C27.5532 16.3889 27.2974 16.6447 26.9817 16.6447C26.6663 16.6447 26.4105 16.3889 26.4105 16.0735C26.4105 15.7581 26.6663 15.5023 26.9817 15.5023C27.2974 15.5023 27.5532 15.7581 27.5532 16.0735Z" fill="#FFFEF6"/>
<path fill-rule="evenodd" clip-rule="evenodd" d="M13.4698 19.6965C13.4698 20.7301 12.2192 21.5685 10.6769 21.5685C9.13463 21.5685 7.8844 20.7301 7.8844 19.6965C7.8844 18.6626 9.13463 17.8246 10.6769 17.8246C12.2192 17.8246 13.4698 18.6626 13.4698 19.6965Z" fill="#E788AE"/>
<path fill-rule="evenodd" clip-rule="evenodd" d="M31.981 19.6965C31.981 20.7301 30.7305 21.5685 29.1882 21.5685C27.6459 21.5685 26.3956 20.7301 26.3956 19.6965C26.3956 18.6626 27.6459 17.8246 29.1882 17.8246C30.7305 17.8246 31.981 18.6626 31.981 19.6965Z" fill="#E788AE"/>
<path fill-rule="evenodd" clip-rule="evenodd" d="M17.4015 24.9468C17.4015 23.4048 17.8765 20.1742 20.1931 20.1742C22.4545 20.1742 22.9849 23.4048 22.9849 24.9468H17.4015Z" fill="#E788AE"/>
<path fill-rule="evenodd" clip-rule="evenodd" d="M17.9063 24.4611H22.4804C22.3827 23.0761 21.8646 20.6595 20.193 20.6595C18.3548 20.6595 17.9818 23.3339 17.9063 24.4611ZM22.9846 25.4325H17.4015C17.1334 25.4325 16.9158 25.2149 16.9158 24.9468C16.9158 22.5208 17.7742 19.6881 20.193 19.6881C22.7803 19.6881 23.4703 22.9936 23.4703 24.9468C23.4703 25.2149 23.2531 25.4325 22.9846 25.4325Z" fill="#60241C"/>
</svg>
