<svg width="40" height="40" viewBox="0 0 40 40" fill="none" xmlns="http://www.w3.org/2000/svg">
<path fill-rule="evenodd" clip-rule="evenodd" d="M36.3897 20.2866C36.3897 29.2308 29.139 36.4816 20.195 36.4816C11.2507 36.4816 4 29.2308 4 20.2866C4 11.3423 11.2507 31.4088 20.195 31.4088C29.139 31.4088 36.3897 11.3423 36.3897 20.2866Z" fill="#DB8C00"/>
<path fill-rule="evenodd" clip-rule="evenodd" d="M36.3897 19.195C36.3897 28.139 29.139 34.7421 20.195 34.7421C11.2507 34.7421 4 28.139 4 19.195C4 10.2504 11.2507 3 20.195 3C29.139 3 36.3897 10.2504 36.3897 19.195Z" fill="#FFC359"/>
<path fill-rule="evenodd" clip-rule="evenodd" d="M13.7318 20.8905C13.7318 21.9244 12.4816 22.7624 10.9393 22.7624C9.39696 22.7624 8.14673 21.9244 8.14673 20.8905C8.14673 19.8566 9.39696 19.0186 10.9393 19.0186C12.4816 19.0186 13.7318 19.8566 13.7318 20.8905Z" fill="#E788AE"/>
<path fill-rule="evenodd" clip-rule="evenodd" d="M32.243 20.8905C32.243 21.9244 30.9928 22.7624 29.4505 22.7624C27.9082 22.7624 26.658 21.9244 26.658 20.8905C26.658 19.8566 27.9082 19.0186 29.4505 19.0186C30.9928 19.0186 32.243 19.8566 32.243 20.8905Z" fill="#E788AE"/>
<path fill-rule="evenodd" clip-rule="evenodd" d="M30.0796 17.7211C29.8115 17.7211 29.5939 17.5035 29.5939 17.2354C29.5939 15.9848 28.5765 14.9674 27.3259 14.9674C26.0754 14.9674 25.058 15.9848 25.058 17.2354C25.058 17.5035 24.8404 17.7211 24.5723 17.7211C24.3041 17.7211 24.0865 17.5035 24.0865 17.2354C24.0865 15.4492 25.5398 13.996 27.3259 13.996C29.1124 13.996 30.5653 15.4492 30.5653 17.2354C30.5653 17.5035 30.3477 17.7211 30.0796 17.7211Z" fill="#60241C"/>
<path fill-rule="evenodd" clip-rule="evenodd" d="M14.8878 16.125C14.8878 17.5724 13.714 18.7462 12.2663 18.7462C10.8188 18.7462 9.64502 17.5724 9.64502 16.125C9.64502 14.6769 10.8188 13.5034 12.2663 13.5034C13.714 13.5034 14.8878 14.6769 14.8878 16.125Z" fill="#60241C"/>
<path fill-rule="evenodd" clip-rule="evenodd" d="M14.4957 15.1267C14.4957 15.7578 13.9841 16.2694 13.3533 16.2694C12.7225 16.2694 12.2106 15.7578 12.2106 15.1267C12.2106 14.4955 12.7225 13.9843 13.3533 13.9843C13.9841 13.9843 14.4957 14.4955 14.4957 15.1267Z" fill="#FFFEF6"/>
<path fill-rule="evenodd" clip-rule="evenodd" d="M12.22 17.2674C12.22 17.5828 11.9641 17.8386 11.6484 17.8386C11.333 17.8386 11.0769 17.5828 11.0769 17.2674C11.0769 16.9517 11.333 16.6962 11.6484 16.6962C11.9641 16.6962 12.22 16.9517 12.22 17.2674Z" fill="#FFFEF6"/>
<path fill-rule="evenodd" clip-rule="evenodd" d="M20.195 23.1627C18.9069 23.1627 17.8594 22.1152 17.8594 20.8274C17.8594 20.559 18.077 20.3417 18.3451 20.3417C18.6132 20.3417 18.8308 20.559 18.8308 20.8274C18.8308 21.5796 19.4425 22.1913 20.195 22.1913C20.9469 22.1913 21.5589 21.5796 21.5589 20.8274C21.5589 20.559 21.7762 20.3417 22.0446 20.3417C22.3127 20.3417 22.5303 20.559 22.5303 20.8274C22.5303 22.1152 21.4825 23.1627 20.195 23.1627Z" fill="#60241C"/>
<path fill-rule="evenodd" clip-rule="evenodd" d="M21.7674 22.6449L22.2612 23.1387C22.4273 23.3045 22.7158 23.3045 22.8823 23.1387C22.9649 23.0555 23.0108 22.9454 23.0108 22.8282C23.0108 22.7106 22.9649 22.6006 22.8823 22.5177L22.3856 22.0213L22.1615 22.4335L21.7674 22.6449ZM22.5717 24.2387C22.1945 24.2387 21.8406 24.092 21.5741 23.8255L20.1561 22.4072L21.4468 21.7146L22.1537 20.4152L23.5691 21.8309C24.1189 22.3807 24.1189 23.2754 23.5691 23.8255C23.3026 24.092 22.9487 24.2387 22.5717 24.2387Z" fill="#60241C"/>
<path fill-rule="evenodd" clip-rule="evenodd" d="M22.9846 23.2106C22.7687 23.4262 22.4189 23.4262 22.2033 23.2106L21.6321 22.6394L22.4134 21.858L22.9846 22.4292C23.2003 22.6449 23.2003 22.9946 22.9846 23.2106Z" fill="#E788AE"/>
</svg>
