<svg width="19" height="19" viewBox="0 0 19 19" fill="none" xmlns="http://www.w3.org/2000/svg">
<path fill-rule="evenodd" clip-rule="evenodd" d="M12.5943 2.17694C12.5943 2.17694 6.5167 2.18011 6.5072 2.18011C4.3222 2.19357 2.96924 3.63123 2.96924 5.82415V13.1043C2.96924 15.3083 4.33249 16.7515 6.53649 16.7515C6.53649 16.7515 12.6133 16.7491 12.6236 16.7491C14.8086 16.7357 16.1624 15.2972 16.1624 13.1043V5.82415C16.1624 3.62015 14.7983 2.17694 12.5943 2.17694Z" stroke="#414141" stroke-width="1.2" stroke-linecap="round" stroke-linejoin="round"/>
<path d="M12.6099 4.98541H6.47923C5.5188 4.98541 4.7373 5.76687 4.7373 6.72734V9.02337C4.7373 9.9838 5.51876 10.7653 6.47923 10.7653H12.6099C13.5704 10.7653 14.3519 9.98384 14.3519 9.02337V6.72734C14.3519 5.76691 13.5702 4.98541 12.6098 4.98541H12.6099ZM13.8186 9.02337C13.8186 9.68984 13.2764 10.2319 12.6101 10.2319L6.4794 10.2321C5.81293 10.2321 5.27088 9.68984 5.27088 9.02354V6.72751C5.27088 6.06104 5.8131 5.51898 6.4794 5.51898H12.6101C13.2766 5.51898 13.8186 6.06121 13.8186 6.72751V9.02337Z" fill="#414141" stroke="#414141" stroke-width="0.5" stroke-linecap="round" stroke-linejoin="round"/>
<path d="M10.8605 12.0245C10.5591 12.4867 10.0448 12.7654 9.49296 12.7654C8.94127 12.7654 8.42679 12.4867 8.12545 12.0245C8.0537 11.922 7.9439 11.8525 7.82057 11.8314C7.69723 11.8102 7.57046 11.8392 7.46868 11.9119C7.36748 11.9838 7.29892 12.0926 7.27783 12.2148C7.25674 12.3369 7.2849 12.4625 7.35606 12.5641C7.83317 13.2774 8.63485 13.7056 9.49295 13.7056C10.3512 13.7056 11.1527 13.2774 11.6299 12.5641C11.7025 12.4622 11.7316 12.3355 11.7104 12.2122C11.6893 12.0888 11.6197 11.979 11.5173 11.9073C11.4149 11.835 11.2879 11.8068 11.1644 11.8288C11.0411 11.8509 10.9316 11.9213 10.8605 12.0245Z" fill="#414141" stroke="#414141" stroke-width="0.3"/>
<path d="M7.50526 7.09247C7.30499 7.09247 7.11284 7.17211 6.97124 7.31371C6.82952 7.45543 6.75 7.64745 6.75 7.84785C6.75 8.04812 6.82952 8.24028 6.97124 8.38187C7.11285 8.52359 7.30498 8.60311 7.50526 8.60311C7.70565 8.60311 7.89769 8.52359 8.0394 8.38187C8.18101 8.24027 8.26064 8.04813 8.26064 7.84785C8.26064 7.64746 8.18101 7.45543 8.0394 7.31371C7.89768 7.17211 7.70567 7.09247 7.50526 7.09247Z" fill="#414141" stroke="#414141" stroke-width="0.3"/>
<path d="M11.3098 7.09248C11.1091 7.0913 10.9163 7.16988 10.7738 7.31101C10.6312 7.45203 10.5506 7.64406 10.5498 7.84467C10.549 8.0453 10.6279 8.23791 10.7693 8.38023C10.9108 8.52255 11.1029 8.60265 11.3035 8.60312C11.5041 8.60348 11.6967 8.52419 11.8386 8.38247C11.9806 8.24075 12.0603 8.04837 12.0603 7.84785C12.0605 7.64828 11.9815 7.45684 11.8409 7.31536C11.7002 7.17388 11.5092 7.09378 11.3098 7.09248Z" fill="#414141" stroke="#414141" stroke-width="0.3"/>
</svg>
