<svg width="85" height="83" viewBox="0 0 85 83" fill="none" xmlns="http://www.w3.org/2000/svg">
<path fill-rule="evenodd" clip-rule="evenodd" d="M83.5173 43.2585C83.5173 64.9404 65.9408 82.5174 44.2588 82.5174C22.5769 82.5174 5 64.9404 5 43.2585C5 21.5766 22.5769 4 44.2588 4C65.9408 4 83.5173 21.5766 83.5173 43.2585Z" fill="#F7D5C3"/>
<path fill-rule="evenodd" clip-rule="evenodd" d="M72.2934 24.6794L60.2925 75.2114C59.4193 78.8833 55.7362 81.1533 52.0643 80.2801L20.6804 72.8283C17.0088 71.9551 14.7385 68.272 15.6117 64.6002L27.6126 14.0681C27.7107 13.6573 27.8438 13.2627 28.0081 12.8894C29.3093 9.92718 32.5782 8.22404 35.8392 8.99905L67.2228 16.4509C70.8947 17.3241 73.1647 21.0072 72.2934 24.6794Z" fill="#7D78B6"/>
<path fill-rule="evenodd" clip-rule="evenodd" d="M16.6573 68.9238C16.6244 68.863 16.5915 68.8022 16.5566 68.7415C16.5721 68.7383 16.5934 68.7335 16.6089 68.7303C16.6244 68.7959 16.6398 68.8598 16.6573 68.9238Z" fill="#BBAEEC"/>
<path fill-rule="evenodd" clip-rule="evenodd" d="M22.4737 40.9598C22.2834 40.8083 22.0894 40.6611 21.8926 40.5184L28.1441 14.194C28.5321 12.5604 29.5331 11.1755 30.9627 10.2945C31.9668 9.67583 33.0978 9.3576 34.2484 9.3576C34.7358 9.3576 35.2266 9.41472 35.7127 9.53028L45.3717 11.8243C45.2118 11.9312 45.0474 12.0258 44.8772 12.1083L36.8037 10.1908C36.2732 10.0649 35.7424 10.0045 35.22 10.0045C32.1271 10.0045 29.3228 12.1199 28.5768 15.2612L22.4737 40.9598ZM69.3986 18.0533C69.0159 17.8827 68.6119 17.745 68.1892 17.6447L57.6951 15.1522C57.6338 15.0722 57.5754 14.9894 57.5198 14.9045C57.4717 14.8304 57.4255 14.7545 57.3814 14.6764L67.0973 16.9839C67.9427 17.1845 68.7216 17.5497 69.3986 18.0533Z" fill="#FAE5DA"/>
<path fill-rule="evenodd" clip-rule="evenodd" d="M31.8036 15.7202L22.7832 53.703L29.7339 65.096L54.9401 71.0822C55.9123 71.3131 56.8871 70.7123 57.1179 69.7401L67.9107 24.2955L31.8036 15.7202Z" fill="white"/>
<path fill-rule="evenodd" clip-rule="evenodd" d="M29.806 65.1666L22.666 53.8333L29.3742 55.8304C29.8794 55.9504 30.3074 56.26 30.5798 56.7017C30.8519 57.1438 30.936 57.6652 30.816 58.1704L29.806 65.1666Z" fill="#E2E4F3"/>
<path fill-rule="evenodd" clip-rule="evenodd" d="M66.8663 28.9L30.5996 20.4L31.7329 16.4333L67.9996 24.3667L66.8663 28.9Z" fill="#E4E4ED"/>
<path fill-rule="evenodd" clip-rule="evenodd" d="M51.5896 12.4788C50.5533 12.2326 49.9132 11.194 50.1593 10.1577C50.4055 9.1214 51.4443 8.48141 52.4806 8.72747C53.5169 8.97359 54.1567 10.0123 53.9109 11.0486C53.6647 12.0849 52.6259 12.725 51.5896 12.4788ZM68.9329 21.3499C68.1571 20.089 66.9 19.1252 65.3447 18.7556L61.7044 17.8912C57.37 16.8617 55.8107 14.8057 56.189 10.1052C56.5117 8.07823 55.2215 6.11393 53.1911 5.63172C51.2637 5.17399 49.3318 6.2096 48.6076 7.98763C48.6035 7.99666 48.5994 8.00722 48.5957 8.01622C46.8071 12.5997 44.484 13.8016 40.0651 12.7522L36.4811 11.9009C33.3722 11.1626 30.2555 13.0843 29.5176 16.1916L69.6355 25.7191C70.0045 24.1655 69.7086 22.609 68.9329 21.3499Z" fill="#BCC7E4"/>
<path fill-rule="evenodd" clip-rule="evenodd" d="M30.6574 15.9005L30.2031 15.7927C30.3434 15.3915 30.5287 15.0172 30.7524 14.6733C31.2297 13.9382 31.8824 13.3417 32.6378 12.9297C33.3935 12.5176 34.2508 12.2898 35.139 12.2898C35.5395 12.2898 35.9466 12.3361 36.3546 12.4329L39.9387 13.2843C40.9437 13.5226 41.8579 13.6523 42.7027 13.6526C42.702 13.6526 42.703 13.6526 42.7027 13.6526C43.4468 13.6526 44.1395 13.5504 44.779 13.3296C45.2586 13.1643 45.7078 12.9319 46.123 12.6332C46.4348 12.4095 46.7279 12.1486 47.0034 11.8525C47.4167 11.4079 47.791 10.8838 48.1378 10.279C48.4833 9.6754 48.8017 8.99114 49.1025 8.2205C49.1047 8.21525 49.1066 8.21103 49.1079 8.20772L49.11 8.20203L49.111 8.20025L49.1135 8.19394C49.3756 7.55058 49.8211 7.02025 50.3741 6.6496C50.9274 6.2791 51.586 6.07037 52.272 6.07037C52.5332 6.07037 52.7981 6.10049 53.0643 6.16369C53.3824 6.23927 53.6782 6.35636 53.9485 6.50801C53.9394 6.50579 53.93 6.50354 53.921 6.50139C53.6129 6.42825 53.3052 6.39323 53.0018 6.39323C51.4076 6.39323 49.9467 7.36235 49.3381 8.85686C49.3344 8.86561 49.3287 8.87554 49.3247 8.88579C47.9313 12.4567 46.2136 13.9747 43.4328 13.9747C42.6446 13.9747 41.771 13.8529 40.7953 13.621L37.2116 12.77C36.762 12.6632 36.3121 12.6119 35.8695 12.6119C33.6532 12.6119 31.614 13.8941 30.6574 15.9005ZM52.7669 13.4002C52.6191 13.4002 52.4692 13.383 52.3192 13.3474C52.073 13.2889 51.8493 13.1859 51.6541 13.0484C51.7822 13.0684 51.9102 13.0784 52.0368 13.0784C52.3173 13.0784 52.5913 13.0303 52.8481 12.9409C53.2333 12.8063 53.5804 12.5788 53.8579 12.2773C54.135 11.9765 54.3418 11.6 54.4424 11.175C54.4839 11.0004 54.5058 10.8249 54.5096 10.6515C54.6889 11.0324 54.7451 11.4751 54.6402 11.9174C54.4296 12.8041 53.6395 13.4002 52.7669 13.4002Z" fill="#E0D8FF"/>
<path fill-rule="evenodd" clip-rule="evenodd" d="M27.4293 51.5596L46.3893 56.0621C46.683 56.1321 46.9779 55.9503 47.0476 55.6566C47.1173 55.363 46.9357 55.068 46.6421 54.9984L27.682 50.4955C27.3881 50.4258 27.0934 50.6073 27.0238 50.9013C26.9538 51.195 27.1356 51.4896 27.4293 51.5596Z" fill="#414141"/>
<path d="M47.5658 35.2496L44.6063 34.5663L43.7646 35.8922L42.5544 35.6127L46.7199 29.1235L48.0623 29.4334L48.9616 37.092L47.7411 36.8102L47.5658 35.2496ZM47.4586 34.2292L47.0673 30.681L45.15 33.6962L47.4586 34.2292Z" fill="#7B6F72"/>
<path d="M52.8528 30.5501L51.2221 37.6138L50.0627 37.3462L51.6934 30.2824L52.8528 30.5501Z" fill="#7B6F72"/>
<path fill-rule="evenodd" clip-rule="evenodd" d="M30.2537 39.7297L54.9653 45.7394C55.2587 45.8106 55.5542 45.6307 55.6258 45.3373C55.697 45.0439 55.5171 44.7481 55.2237 44.6769L30.5121 38.6672C30.2187 38.5959 29.9228 38.7759 29.8516 39.0693C29.7801 39.3626 29.9603 39.6585 30.2537 39.7297Z" fill="#414141"/>
<path fill-rule="evenodd" clip-rule="evenodd" d="M29.1208 45.1558L53.8324 51.1652C54.1258 51.2364 54.4213 51.0564 54.4929 50.7631C54.5641 50.4697 54.3842 50.1742 54.0908 50.1026L29.3791 44.0933C29.0858 44.022 28.7902 44.202 28.7187 44.4953C28.6475 44.7887 28.8274 45.0843 29.1208 45.1558Z" fill="#414141"/>
<path fill-rule="evenodd" clip-rule="evenodd" d="M61.0606 65.7265L76.1893 43.0632C76.3829 42.7733 76.5493 42.4676 76.6843 42.1501C76.9989 41.4228 77.1613 40.6335 77.1551 39.833L77.1166 35.1438L77.0962 32.3976C77.0887 31.6094 76.2912 31.0768 75.5604 31.3724L68.6698 34.1687C67.9937 34.4443 67.3795 34.8439 66.8584 35.343C66.5582 35.6294 66.2892 35.9511 66.0568 36.2992L50.988 58.873C49.1164 61.6769 49.8288 65.5782 52.6438 67.4327C54.0361 68.3492 55.6665 68.6223 57.185 68.3194C58.7133 68.0137 60.1267 67.1258 61.0606 65.7265Z" fill="#FFD771"/>
<path fill-rule="evenodd" clip-rule="evenodd" d="M61.0602 65.7264L62.4427 63.6554L52.3102 56.8917L50.9876 58.873C49.1159 61.6768 49.8283 65.5781 52.6433 67.4327C54.0357 68.3491 55.666 68.6222 57.1845 68.3194C58.7128 68.0136 60.1263 67.1257 61.0602 65.7264Z" fill="#CE797B"/>
<path fill-rule="evenodd" clip-rule="evenodd" d="M76.6843 42.1501C76.9989 41.4228 77.1613 40.6335 77.1551 39.833L77.1166 35.1438L77.0962 32.3976C77.0887 31.6094 76.2912 31.0768 75.5604 31.3724L68.6698 34.1687C67.9937 34.4443 67.3795 34.8439 66.8584 35.343C66.5459 36.748 67.3791 38.6654 69.4537 38.129C69.2679 40.751 71.1308 41.8065 73.3071 40.7016C73.2463 42.582 75.3266 43.3228 76.6843 42.1501Z" fill="#FFDC9C"/>
<path fill-rule="evenodd" clip-rule="evenodd" d="M53.0025 66.9955C53.7139 67.1064 54.4353 67.0891 55.1332 66.9501C56.6615 66.6443 58.0747 65.7565 59.0089 64.3574L60.3478 62.3512L61.9318 63.4087L60.5929 65.4146C59.773 66.6422 58.5237 67.4781 57.075 67.7681C55.6582 68.0504 54.2144 67.7762 53.0025 66.9955Z" fill="#C26567"/>
<path fill-rule="evenodd" clip-rule="evenodd" d="M62.8199 58.6481L73.7841 42.2234C73.9345 42.3749 74.1127 42.5016 74.3153 42.5984C74.7562 42.8089 75.2549 42.8506 75.7312 42.7362C75.7282 42.7411 75.7251 42.7458 75.7218 42.7508L64.4039 59.7056L62.8199 58.6481Z" fill="#FFCB45"/>
<path fill-rule="evenodd" clip-rule="evenodd" d="M55.2602 53.9532L66.8681 36.4775C67.0185 36.629 67.1967 36.7558 67.3993 36.8526C67.5758 36.8434 67.5758 36.8434 67.212 37.5575L55.9895 55.097L55.2602 53.9532Z" fill="#FFEDBF"/>
<path fill-rule="evenodd" clip-rule="evenodd" d="M73.8814 42.0784L74.1384 41.6937C74.3317 41.4039 74.4984 41.0981 74.6334 40.7806C74.9477 40.0533 75.1104 39.264 75.1039 38.4636L75.0654 33.7743L75.0602 33.0638L76.5342 32.4653L76.5925 39.8372C76.6002 40.787 76.3503 41.7092 75.8671 42.5212C75.3766 42.6838 74.8486 42.6642 74.3891 42.4449C74.1936 42.3518 74.0235 42.2277 73.8814 42.0784Z" fill="#F7CE90"/>
<path fill-rule="evenodd" clip-rule="evenodd" d="M50.7907 64.1096C50.7234 63.9025 50.6674 63.6894 50.6232 63.4715C50.3232 61.9893 50.6263 60.427 51.4551 59.1854L52.7341 57.2689L53.6528 57.8823L52.3734 59.7986C51.2822 61.4336 51.0696 63.4421 51.6408 65.2002C51.761 65.5702 51.9161 65.9291 52.1046 66.2709C51.5077 65.6712 51.0589 64.935 50.7907 64.1096Z" fill="#D8999A"/>
<path fill-rule="evenodd" clip-rule="evenodd" d="M67.0069 36.7742C66.9407 36.5706 66.8991 36.3545 66.8837 36.1342C67.4213 35.4999 68.1025 35.0063 68.8812 34.6902L75.0527 32.1853L75.0593 33.0639L70.0554 35.0941C69.3795 35.3696 68.7653 35.7692 68.2442 36.2683C67.9442 36.5543 67.675 36.8763 67.4426 37.2245L67.3223 37.4052C67.1878 37.2189 67.0818 37.0047 67.0069 36.7742Z" fill="#FFF3DC"/>
<path fill-rule="evenodd" clip-rule="evenodd" d="M66.8467 36.827C66.7939 36.6645 66.7554 36.4947 66.7329 36.321C66.7818 36.2575 66.8322 36.1951 66.884 36.1342C66.8995 36.3546 66.9411 36.5707 67.0072 36.7742C67.0822 37.0048 67.1882 37.219 67.3226 37.4052L67.2222 37.5552C67.0605 37.3436 66.9339 37.0953 66.8467 36.827Z" fill="#FFF3DC"/>
<path fill-rule="evenodd" clip-rule="evenodd" d="M75.0598 33.0637L75.0533 32.1851L75.7725 31.8933C75.9448 31.8232 76.1324 31.8424 76.2872 31.9458C76.3933 32.0165 76.4685 32.1165 76.506 32.2321C76.5234 32.2856 76.5327 32.3424 76.5334 32.4013L76.5338 32.4652L75.0598 33.0637Z" fill="#E4DCD8"/>
<path fill-rule="evenodd" clip-rule="evenodd" d="M64.4773 59.8492L55.0256 53.5397C54.5864 53.2465 53.9922 53.365 53.6987 53.8043L52.3761 55.7856C52.0827 56.2252 52.2012 56.8193 52.6408 57.1127L62.0925 63.4222C62.532 63.7153 63.1262 63.5968 63.4194 63.1576L64.7419 61.1761C65.0354 60.7368 64.9169 60.1426 64.4773 59.8492Z" fill="#BCC7E4"/>
<path fill-rule="evenodd" clip-rule="evenodd" d="M59.9836 61.9199C60.3475 61.9863 60.7323 61.8373 60.9509 61.51L62.2744 59.5275C62.4434 59.2742 62.4755 58.9695 62.3882 58.7009C62.3627 58.6224 62.3271 58.5473 62.282 58.4772L64.4344 59.914C64.6004 60.0247 64.7211 60.1848 64.7818 60.3717C64.7926 60.4047 64.8016 60.4386 64.8085 60.4731C64.8544 60.7033 64.8077 60.9375 64.6773 61.1327L63.3549 63.1138C63.2246 63.3092 63.026 63.4421 62.7959 63.488C62.5657 63.5338 62.3315 63.4874 62.1364 63.357L59.9836 61.9199Z" fill="#A1A1CC"/>
<path fill-rule="evenodd" clip-rule="evenodd" d="M52.3365 56.59C52.3257 56.5571 52.3167 56.5232 52.31 56.4883C52.2641 56.2581 52.3105 56.0239 52.4409 55.8288L53.7636 53.8476C53.8939 53.6522 54.0922 53.5194 54.3223 53.4735C54.5525 53.4276 54.787 53.474 54.9821 53.6044L55.8357 54.1739C55.4719 54.1078 55.0867 54.257 54.8684 54.5838L53.5449 56.5666C53.3757 56.82 53.3435 57.1245 53.4309 57.3934C53.4564 57.4718 53.492 57.547 53.5374 57.617L52.6838 57.0475C52.5181 56.9367 52.3972 56.7769 52.3365 56.59Z" fill="#E5E5E9"/>
<path fill-rule="evenodd" clip-rule="evenodd" d="M77.1167 35.1436L77.0955 32.397C77.0895 31.6093 76.2908 31.0761 75.5609 31.3724L73.0151 32.4056C73.866 34.0912 75.2339 35.0044 77.1167 35.1436Z" fill="#414141"/>
<path fill-rule="evenodd" clip-rule="evenodd" d="M10.546 19.7064C10.3205 19.011 10.2345 18.2963 10.2782 17.5992C10.3753 15.9981 11.1481 14.4879 12.4493 13.5117C13.7701 12.5214 15.4704 12.2037 17.0641 12.5915C17.5145 12.6997 17.9582 12.8654 18.3813 13.0893C16.5218 19.1335 10.546 19.7064 10.546 19.7064Z" fill="#CE797B"/>
<path fill-rule="evenodd" clip-rule="evenodd" d="M10.5453 19.7063C10.3198 19.0109 10.2338 18.2962 10.2775 17.5992C11.3481 16.8994 12.4538 16.1374 13.5843 15.3081C14.8294 14.3938 15.9886 13.4835 17.0634 12.5914C17.5138 12.6996 17.9575 12.8653 18.3806 13.0892C15.7686 15.2948 13.1574 17.5008 10.5453 19.7063Z" fill="#C26567"/>
<path fill-rule="evenodd" clip-rule="evenodd" d="M12.0269 14.4446C11.9973 14.3791 11.2966 12.8126 11.522 10.5663C11.7275 8.51067 12.782 5.47183 16.6372 2.66827L17.1321 3.34883C14.2556 5.4406 12.6515 7.88239 12.3632 10.6057C12.1488 12.6373 12.787 14.0818 12.793 14.0959L12.0269 14.4446Z" fill="#CE797B"/>
<path fill-rule="evenodd" clip-rule="evenodd" d="M19.2812 3.62373C18.6257 4.4848 17.3967 4.65175 16.5358 3.99657C15.6741 3.34098 15.5076 2.11186 16.163 1.2508C16.8184 0.389822 18.0475 0.222788 18.9084 0.877969C19.77 1.53364 19.9366 2.76267 19.2812 3.62373Z" fill="#BCC7E4"/>
<path fill-rule="evenodd" clip-rule="evenodd" d="M16.8825 1.3743C16.6194 1.89189 16.8256 2.52506 17.3431 2.78827C17.8606 3.05165 18.494 2.84586 18.7572 2.32819C19.0204 1.81053 18.8141 1.17752 18.2967 0.914146C17.7791 0.650933 17.1465 0.857209 16.8825 1.3743Z" fill="#DAE3FB"/>
<path fill-rule="evenodd" clip-rule="evenodd" d="M38.9436 32.2999C39.331 40.0942 21.9297 44.8135 13.0728 41.1572C10.6118 40.1415 8.81049 38.4783 8.23352 36.0561C5.57817 24.9152 11.7921 13.6571 20.3851 12.6061C23.4991 12.2252 27.3027 12.97 30.655 15.2405C34.9503 18.1466 38.5091 23.5544 38.9436 32.2999Z" fill="#FFB3C0"/>
<path fill-rule="evenodd" clip-rule="evenodd" d="M33.5108 26.0383C33.7009 27.5885 32.1156 28.7514 29.9914 29.5866C27.7539 30.4671 24.9194 30.9846 22.9284 31.2087C20.0788 31.5295 14.5291 31.7068 12.3281 30.1458C11.8121 29.7801 11.4811 29.3179 11.4108 28.7415C11.2053 27.0623 11.7183 25.4565 12.7148 24.2165C13.7115 22.9779 15.1917 22.1064 16.9186 21.8952L26.5151 20.7214C28.5221 20.4759 30.4211 21.1775 31.7394 22.4673C32.6901 23.3976 33.3396 24.6324 33.5108 26.0383Z" fill="#FFE6D5"/>
<path fill-rule="evenodd" clip-rule="evenodd" d="M33.5113 26.0383C33.7015 27.5885 32.1161 28.7514 29.9919 29.5866C27.7545 30.4671 24.9199 30.9846 22.929 31.2087C20.0794 31.5294 14.5297 31.7068 12.3286 30.1457C17.9458 29.2867 27.4155 27.1897 31.74 22.4673C32.6907 23.3976 33.3402 24.6324 33.5113 26.0383Z" fill="#FBE3D2"/>
<path fill-rule="evenodd" clip-rule="evenodd" d="M38.9438 32.2999C39.3311 40.0942 21.9298 44.8135 13.073 41.1572C18.2374 41.3781 33.5338 41.3798 35.3574 33.7875C36.9252 27.2584 33.0234 19.2799 30.6552 15.2405C34.9504 18.1466 38.5092 23.5544 38.9438 32.2999Z" fill="black" fill-opacity="0.1"/>
<path fill-rule="evenodd" clip-rule="evenodd" d="M11.4137 21.4195C11.946 21.9673 14.6058 20.3593 16.3257 18.7372C17.9746 17.1824 19.5667 14.8534 19.0862 14.3082C18.6585 13.8241 16.6723 14.8316 15.4502 15.6861C12.7145 17.5985 10.835 20.8228 11.4137 21.4195Z" fill="white" fill-opacity="0.1"/>
<path fill-rule="evenodd" clip-rule="evenodd" d="M8.78257 33.9436C9.10147 35.9994 10.6025 37.8044 11.0967 37.6083C11.6153 37.4026 11.0958 34.9642 10.6824 33.6394C10.564 33.2591 9.84015 30.9328 9.28434 31.0111C8.84804 31.0726 8.5752 32.6122 8.78257 33.9436Z" fill="white" fill-opacity="0.1"/>
<path fill-rule="evenodd" clip-rule="evenodd" d="M31.3892 24.9711C31.578 26.5137 30.4802 27.9172 28.9384 28.1058C27.7459 28.2517 26.6366 27.6304 26.1073 26.6283C25.9513 26.3334 25.8453 26.0056 25.8021 25.6545C25.6133 24.1119 26.7111 22.7084 28.2548 22.5196C29.3903 22.3807 30.4496 22.939 31.0042 23.8585C31.2049 24.1882 31.3392 24.5641 31.3892 24.9711Z" fill="#59334F"/>
<path fill-rule="evenodd" clip-rule="evenodd" d="M28.4264 22.0222C28.3501 22.0262 28.2721 22.0331 28.1962 22.0423C27.3218 22.1492 26.5423 22.5899 25.9996 23.2832C25.4579 23.9764 25.2174 24.8393 25.3243 25.7129C25.374 26.1138 25.4935 26.4974 25.6822 26.853C26.2794 27.9831 27.4896 28.6702 28.7655 28.6034C28.8418 28.5994 28.9198 28.5926 28.9967 28.5832C29.8701 28.4764 30.6496 28.0357 31.1913 27.3425C31.734 26.6492 31.9735 25.7864 31.8666 24.9127C31.8097 24.4464 31.6577 24.0076 31.4151 23.6087C30.7872 22.567 29.6413 21.9586 28.4264 22.0222ZM28.4486 22.502C29.5082 22.4464 30.4818 22.9924 31.004 23.8585C31.2047 24.1882 31.3391 24.5641 31.3891 24.9711C31.5779 26.5137 30.48 27.9172 28.9382 28.1059C28.8717 28.114 28.8061 28.1197 28.7404 28.1231C27.6236 28.1817 26.6077 27.5748 26.1071 26.6283C25.9512 26.3334 25.8451 26.0056 25.8019 25.6545C25.6131 24.112 26.7109 22.7084 28.2546 22.5197C28.3201 22.5116 28.3829 22.5054 28.4486 22.502Z" fill="#908AD7"/>
<path fill-rule="evenodd" clip-rule="evenodd" d="M31.0009 23.8532C30.2664 26.5016 27.6715 26.7427 26.1142 26.6357C25.9574 26.3415 25.8504 26.014 25.8062 25.6631C25.6117 24.1212 26.7046 22.714 28.2481 22.52C29.3833 22.3774 30.4436 22.9356 31.0009 23.8532Z" fill="#60241C"/>
<path fill-rule="evenodd" clip-rule="evenodd" d="M28.3608 24.4005C28.423 24.9126 28.0585 25.3785 27.5468 25.4411C27.0341 25.5037 26.5688 25.1394 26.5057 24.6273C26.4435 24.1152 26.8079 23.6492 27.3197 23.5866C27.8323 23.524 28.2977 23.8884 28.3608 24.4005Z" fill="#E3CCE0"/>
<path fill-rule="evenodd" clip-rule="evenodd" d="M30.8531 25.5872C31.0171 25.6707 30.9299 26.6688 30.284 27.1256C29.71 27.5315 28.8665 27.3889 28.8257 27.2122C28.796 27.0822 29.2128 26.9947 29.8662 26.4812C30.5535 25.9406 30.7383 25.5291 30.8531 25.5872Z" fill="#E3CCE0"/>
<path fill-rule="evenodd" clip-rule="evenodd" d="M18.9975 26.4865C19.1863 28.0291 18.0894 29.4326 16.5467 29.6212C15.3542 29.7671 14.2448 29.1457 13.7155 28.1436C13.5596 27.8488 13.4536 27.521 13.4103 27.1699C13.2225 25.6273 14.3194 24.2239 15.8631 24.0351C16.9986 23.8962 18.0588 24.4543 18.6134 25.3738C18.8132 25.7036 18.9485 26.0795 18.9975 26.4865Z" fill="#59334F"/>
<path fill-rule="evenodd" clip-rule="evenodd" d="M16.0358 23.5376C15.9586 23.5417 15.8815 23.5484 15.8046 23.5577C14.9312 23.6646 14.1507 24.1053 13.609 24.7985C13.0663 25.4917 12.8268 26.3547 12.9337 27.2283C12.9824 27.6292 13.1029 28.0128 13.2906 28.3684C13.8878 29.4986 15.0981 30.1857 16.374 30.1188C16.4502 30.1148 16.5282 30.1079 16.6051 30.0987C18.408 29.8781 19.6957 28.2314 19.475 26.4282C19.4181 25.9617 19.2661 25.523 19.0236 25.1241C18.3957 24.0824 17.2506 23.4739 16.0358 23.5376ZM16.0647 24.017C17.1243 23.9615 18.0902 24.5078 18.6134 25.3738C18.8131 25.7036 18.9485 26.0795 18.9975 26.4865C19.1863 28.0291 18.0894 29.4326 16.5466 29.6212C16.4802 29.6294 16.4145 29.6351 16.3488 29.6386C15.233 29.697 14.2161 29.0902 13.7155 28.1436C13.5596 27.8488 13.4536 27.521 13.4103 27.17C13.2225 25.6273 14.3194 24.2239 15.8631 24.0351C15.9295 24.027 15.9989 24.0204 16.0647 24.017Z" fill="#908AD7"/>
<path fill-rule="evenodd" clip-rule="evenodd" d="M18.6142 25.3738C17.8797 28.0221 15.2808 28.2582 13.7235 28.1512C13.5666 27.8568 13.4597 27.5293 13.4155 27.1785C13.2219 25.6365 14.3148 24.2294 15.8573 24.0354C16.9926 23.8928 18.0559 24.4562 18.6142 25.3738Z" fill="#60241C"/>
<path fill-rule="evenodd" clip-rule="evenodd" d="M15.9693 25.9159C16.0315 26.4279 15.6671 26.8939 15.1553 26.9565C14.6436 27.0191 14.1774 26.6548 14.1152 26.1426C14.052 25.6306 14.4165 25.1647 14.9282 25.102C15.4409 25.0393 15.9062 25.4038 15.9693 25.9159Z" fill="#E3CCE0"/>
<path fill-rule="evenodd" clip-rule="evenodd" d="M18.4615 27.1026C18.6255 27.186 18.5383 28.1842 17.8924 28.641C17.3184 29.0469 16.4749 28.9043 16.4341 28.7275C16.4044 28.5977 16.8212 28.5101 17.4746 27.9966C18.1628 27.456 18.3477 27.0445 18.4615 27.1026Z" fill="#E3CCE0"/>
<path fill-rule="evenodd" clip-rule="evenodd" d="M23.7972 38.0707C22.4616 38.2726 21.3249 37.7866 20.4465 37.0706C18.8696 35.7878 18.1244 33.764 18.5504 33.6521C19.214 33.4801 20.9879 34.3295 22.8033 34.0551C24.8898 33.7396 26.2046 32.8115 27.2679 32.5899C27.3161 32.579 27.3615 32.5709 27.408 32.5639C28.4972 32.3992 27.8972 37.451 23.7972 38.0707Z" fill="#C5737C"/>
<path fill-rule="evenodd" clip-rule="evenodd" d="M23.7978 38.0707C22.4621 38.2726 21.3254 37.7866 20.447 37.0707C22.2119 36.4719 25.6439 35.0473 27.2684 32.5899C27.3166 32.5791 27.362 32.571 27.4085 32.5639C28.4977 32.3993 27.8977 37.4511 23.7978 38.0707Z" fill="#A95C6F"/>
</svg>
