<svg width="17" height="20" viewBox="0 0 17 20" fill="none" xmlns="http://www.w3.org/2000/svg">
<path fill-rule="evenodd" clip-rule="evenodd" d="M9.39022 2.04087C10.7181 0.35913 12.5641 0.350899 12.5641 0.350899C12.5641 0.350899 12.8386 1.93205 11.5195 3.4552C10.111 5.08158 8.51004 4.81545 8.51004 4.81545C8.51004 4.81545 8.20946 3.53636 9.39022 2.04087Z" fill="#5D5D5D"/>
<path fill-rule="evenodd" clip-rule="evenodd" d="M8.67903 5.92305C9.36217 5.92305 10.6299 5.02072 12.2802 5.02072C15.1208 5.02072 16.2382 6.96304 16.2382 6.96304C16.2382 6.96304 14.0526 8.03681 14.0526 10.6423C14.0526 13.5816 16.7752 14.5946 16.7752 14.5946C16.7752 14.5946 14.872 19.7423 12.3013 19.7423C11.1205 19.7423 10.2026 18.9776 8.95853 18.9776C7.69075 18.9776 6.4326 19.7708 5.61321 19.7708C3.26573 19.7708 0.300049 14.8877 0.300049 10.9626C0.300049 7.1007 2.81034 5.07483 5.16486 5.07483C6.69548 5.07483 7.88328 5.92305 8.67903 5.92305Z" fill="#5D5D5D"/>
</svg>
