<svg width="18" height="18" viewBox="0 0 18 18" fill="none" xmlns="http://www.w3.org/2000/svg">
<path d="M3.98918 10.8776L3.36262 13.2166L1.07258 13.2651C0.388195 11.9957 0 10.5434 0 9C0 7.50758 0.362953 6.10021 1.00631 4.86098H1.0068L3.04559 5.23477L3.9387 7.26131C3.75177 7.80627 3.64989 8.39127 3.64989 9C3.64996 9.66066 3.76963 10.2936 3.98918 10.8776Z" fill="#FBBB00"/>
<path d="M17.8428 7.31869C17.9461 7.86312 18 8.42537 18 9C18 9.64434 17.9323 10.2729 17.8032 10.8791C17.3651 12.9422 16.2203 14.7437 14.6344 16.0185L14.6339 16.018L12.066 15.887L11.7025 13.6182C12.7548 13.0011 13.5772 12.0353 14.0104 10.8791H9.19788V7.31869H14.0806H17.8428Z" fill="#518EF8"/>
<path d="M14.6339 16.018L14.6344 16.0185C13.0921 17.2582 11.1328 18 9.00005 18C5.57263 18 2.59275 16.0843 1.07263 13.2651L3.98923 10.8777C4.74927 12.9061 6.70603 14.3501 9.00005 14.3501C9.98608 14.3501 10.9098 14.0835 11.7025 13.6182L14.6339 16.018Z" fill="#28B446"/>
<path d="M14.7447 2.07197L11.8291 4.45894C11.0087 3.94615 10.039 3.64992 9.00004 3.64992C6.65409 3.64992 4.66073 5.16013 3.93877 7.26131L1.00684 4.86098H1.00635C2.50421 1.97307 5.52168 0 9.00004 0C11.1838 0 13.186 0.777867 14.7447 2.07197Z" fill="#F14336"/>
</svg>
