<svg width="18" height="18" viewBox="0 0 18 18" fill="none" xmlns="http://www.w3.org/2000/svg">
<path fill-rule="evenodd" clip-rule="evenodd" d="M12.8725 0.674805H5.0857C2.3749 0.674805 0.674805 2.5954 0.674805 5.3134V12.6448C0.674805 15.3628 2.3677 17.2834 5.0857 17.2834H12.868C15.5905 17.2834 17.2825 15.3628 17.2825 12.6448V5.3134C17.2861 2.5954 15.5932 0.674805 12.8725 0.674805Z" stroke="#414141" stroke-width="1.2" stroke-linecap="round" stroke-linejoin="round"/>
<path fill-rule="evenodd" clip-rule="evenodd" d="M7.83305 6.10647C7.83305 7.02447 7.08965 7.76787 6.17165 7.76787C5.25455 7.76787 4.51025 7.02447 4.51025 6.10647C4.51025 5.18847 5.25455 4.44507 6.17165 4.44507C7.08875 4.44597 7.83215 5.18937 7.83305 6.10647Z" stroke="#414141" stroke-width="1.2" stroke-linecap="round" stroke-linejoin="round"/>
<path d="M17.2865 11.6558C16.4558 10.8008 14.8583 9.07373 13.1213 9.07373C11.3834 9.07373 10.3817 12.8834 8.7104 12.8834C7.0391 12.8834 5.5208 11.1608 4.1816 12.2651C2.8424 13.3685 1.5752 15.6248 1.5752 15.6248" stroke="#414141" stroke-width="1.2" stroke-linecap="round" stroke-linejoin="round"/>
</svg>
