<svg width="173" height="100" viewBox="0 0 173 100" fill="none" xmlns="http://www.w3.org/2000/svg">
<path fill-rule="evenodd" clip-rule="evenodd" d="M36.8426 86.0704H109.727C110.139 86.0704 110.541 86.0258 110.928 85.9411C111.315 86.0258 111.717 86.0704 112.13 86.0704H153.778C156.874 86.0704 159.384 83.5544 159.384 80.4507C159.384 77.347 156.874 74.831 153.778 74.831H148.972C145.876 74.831 143.366 72.315 143.366 69.2113C143.366 66.1076 145.876 63.5916 148.972 63.5916H164.19C167.286 63.5916 169.796 61.0755 169.796 57.9718C169.796 54.8682 167.286 52.3521 164.19 52.3521H146.569C149.666 52.3521 152.176 49.8361 152.176 46.7324C152.176 43.6287 149.666 41.1127 146.569 41.1127H95.3102C98.4066 41.1127 100.917 38.5966 100.917 35.493C100.917 32.3893 98.4066 29.8732 95.3102 29.8732H49.6574C46.561 29.8732 44.0509 32.3893 44.0509 35.493C44.0509 38.5966 46.561 41.1127 49.6574 41.1127H17.6204C14.524 41.1127 12.0139 43.6287 12.0139 46.7324C12.0139 49.8361 14.524 52.3521 17.6204 52.3521H37.6435C40.7399 52.3521 43.25 54.8682 43.25 57.9718C43.25 61.0755 40.7399 63.5916 37.6435 63.5916H5.60648C2.51011 63.5916 0 66.1076 0 69.2113C0 72.315 2.51011 74.831 5.60648 74.831H36.8426C33.7462 74.831 31.2361 77.347 31.2361 80.4507C31.2361 83.5544 33.7462 86.0704 36.8426 86.0704ZM167.394 86.0704C170.49 86.0704 173 83.5544 173 80.4507C173 77.347 170.49 74.831 167.394 74.831C164.297 74.831 161.787 77.347 161.787 80.4507C161.787 83.5544 164.297 86.0704 167.394 86.0704Z" fill="url(#paint0_linear_182_1865)"/>
<path fill-rule="evenodd" clip-rule="evenodd" d="M57.1225 70.0838L54.8015 70.7955C53.554 71.178 52.2325 70.4705 51.8498 69.2153L37.9928 23.7591C37.6102 22.5038 38.3113 21.1762 39.5588 20.7937L84.1701 7.11475C85.4176 6.73223 86.7391 7.43972 87.1217 8.69495C87.1217 8.69495 88.0077 11.6014 88.3125 12.6012" fill="white"/>
<path fill-rule="evenodd" clip-rule="evenodd" d="M58.1864 67.2624L56.0794 67.9121C54.9469 68.2613 53.7487 67.6203 53.4031 66.4803L40.8884 25.2004C40.5429 24.0605 41.1808 22.8534 42.3133 22.5042L82.8119 10.0167C83.9444 9.66752 85.1426 10.3085 85.4882 11.4484L86.5636 14.9958C86.6218 15.1877 90.4748 27.9302 98.1227 53.2232C98.5067 54.4933 97.8067 55.8338 96.5593 56.2175C96.5459 56.2216 96.5325 56.2256 96.519 56.2295L58.1864 67.2624Z" fill="url(#paint1_linear_182_1865)"/>
<path d="M57.1225 70.0838L54.8015 70.7955C53.554 71.178 52.2325 70.4705 51.8498 69.2153L37.9928 23.7591C37.6102 22.5038 38.3113 21.1762 39.5588 20.7937L84.1701 7.11475C85.4176 6.73223 86.7391 7.43972 87.1217 8.69495C87.1217 8.69495 88.0077 11.6014 88.3125 12.6012" stroke="#BFC6E2" stroke-width="1.8" stroke-linecap="round"/>
<path fill-rule="evenodd" clip-rule="evenodd" d="M44.2326 14.2561C43.9894 13.407 44.4803 12.5214 45.3293 12.2776L46.8727 11.8346C47.7224 11.5907 48.6089 12.0821 48.8523 12.9319L51.0659 20.6602C51.3092 21.5093 50.8183 22.3949 49.9693 22.6386L48.4259 23.0817C47.5762 23.3256 46.6897 22.8342 46.4463 21.9844L44.2326 14.2561Z" fill="white" stroke="#BFC6E2" stroke-width="1.8" stroke-linecap="round"/>
<path fill-rule="evenodd" clip-rule="evenodd" d="M70.8603 6.15059C70.6171 5.30144 71.108 4.41583 71.957 4.17211L73.5004 3.72908C74.3501 3.48517 75.2365 3.97655 75.48 4.82639L77.6936 12.5546C77.9369 13.4038 77.446 14.2894 76.5969 14.5331L75.0536 14.9762C74.2039 15.2201 73.3174 14.7287 73.0739 13.8788L70.8603 6.15059Z" fill="white" stroke="#BFC6E2" stroke-width="1.8" stroke-linecap="round"/>
<path d="M89.8569 17.0345L90.4385 18.8193" stroke="#BFC6E2" stroke-width="1.8" stroke-linecap="round"/>
<path fill-rule="evenodd" clip-rule="evenodd" d="M32.5526 74.831H31.7934C26.9369 74.831 23 70.8905 23 66.0297C23 61.1689 26.9369 57.2285 31.7934 57.2285C31.8248 57.2285 31.8561 57.2287 31.8873 57.229C32.6691 50.4118 38.2343 45.1268 44.9835 45.1268C52.0971 45.1268 57.8955 50.9979 58.1639 58.3461C62.4652 58.6244 66.25 62.8205 66.25 67.196C66.25 70.7886 63.5957 74.831 60.4511 74.831H38.5846" fill="white"/>
<path d="M32.5526 74.831H31.7934C26.9369 74.831 23 70.8905 23 66.0297C23 61.1689 26.9369 57.2285 31.7934 57.2285C31.8248 57.2285 31.8561 57.2287 31.8873 57.229C32.6691 50.4118 38.2343 45.1268 44.9835 45.1268C52.0971 45.1268 57.8955 50.9979 58.1639 58.3461C62.4652 58.6244 66.25 62.8205 66.25 67.196C66.25 70.7886 63.5957 74.831 60.4511 74.831H38.5846" stroke="url(#paint2_linear_182_1865)" stroke-width="1.8" stroke-linecap="round"/>
<path fill-rule="evenodd" clip-rule="evenodd" d="M67.3395 24.5311C67.5238 22.7728 69.0991 21.4972 70.8573 21.6824L133.791 28.3127C135.548 28.4978 136.823 30.0717 136.639 31.8288L129.939 95.7245C129.754 97.4828 128.179 98.7585 126.421 98.5732L63.4868 91.943C61.7299 91.7579 60.4553 90.1839 60.6396 88.4269L67.3395 24.5311Z" fill="white" stroke="url(#paint3_linear_182_1865)" stroke-width="1.8" stroke-linecap="round"/>
<path fill-rule="evenodd" clip-rule="evenodd" d="M73.8382 31.6761C73.9765 30.3574 75.1579 29.4007 76.4766 29.5396L126.664 34.827C127.982 34.9658 128.938 36.1463 128.8 37.4641L124.361 79.797C124.222 81.1157 123.041 82.0724 121.722 81.9335L71.5348 76.6461C70.2171 76.5073 69.2612 75.3268 69.3993 74.009L73.8382 31.6761Z" fill="white"/>
<path fill-rule="evenodd" clip-rule="evenodd" d="M73.8382 31.6761C73.9765 30.3574 75.1579 29.4007 76.4766 29.5396L126.664 34.827C127.982 34.9658 128.938 36.1463 128.8 37.4641L124.361 79.797C124.222 81.1157 123.041 82.0724 121.722 81.9335L71.5348 76.6461C70.2171 76.5073 69.2612 75.3268 69.3993 74.009L73.8382 31.6761Z" fill="url(#paint4_linear_182_1865)"/>
<path fill-rule="evenodd" clip-rule="evenodd" d="M112.366 47.3081C109.077 43.2099 103.117 42.582 99.049 45.9051L98.6861 46.2019L98.3927 45.836C95.1068 41.7325 89.1442 41.1005 85.0749 44.4245C81.0055 47.7484 80.3705 53.7695 83.6564 57.873L83.9498 58.239L91.5343 67.7024L93.2948 69.8982L93.3238 69.9381L94.0746 70.8783C95.063 72.1039 96.8474 72.2919 98.0684 71.299L98.9285 70.5956L101.208 68.7316L110.582 61.0583L110.945 60.7614C112.906 59.1684 114.158 56.8534 114.424 54.3286C114.691 51.8037 113.95 49.2772 112.366 47.3081Z" fill="url(#paint5_linear_182_1865)"/>
<path fill-rule="evenodd" clip-rule="evenodd" d="M112.161 61.2253C110.467 59.1064 107.397 58.7829 105.301 60.5026L105.114 60.6562L104.962 60.4669C103.271 58.3453 100.199 58.0197 98.1018 59.7398C96.0046 61.4599 95.6761 64.5742 97.3681 66.6959L97.5191 66.8851L101.424 71.7782L102.331 72.9135L102.346 72.9341L102.732 73.4202C103.241 74.0539 104.161 74.1508 104.79 73.637L105.233 73.273L106.408 72.3084L111.239 68.3376L111.426 68.184C112.436 67.3596 113.082 66.1619 113.22 64.856C113.358 63.55 112.977 62.2435 112.161 61.2253Z" fill="white"/>
<path d="M72.8497 59.0196L73.1857 63.8247" stroke="#CAB6E1" stroke-width="2" stroke-linecap="round" stroke-linejoin="round"/>
<path d="M73.6337 70.2316L73.9698 75.0368" stroke="#CAB6E1" stroke-width="2" stroke-linecap="round" stroke-linejoin="round"/>
<path d="M65.42 67.5869L70.2138 67.2516" stroke="#CAB6E1" stroke-width="2" stroke-linecap="round" stroke-linejoin="round"/>
<path d="M76.6056 66.8047L81.3995 66.4695" stroke="#CAB6E1" stroke-width="2" stroke-linecap="round" stroke-linejoin="round"/>
<path d="M149.356 39.3508L147.948 43.9572" stroke="#BCC0DE" stroke-width="2" stroke-linecap="round" stroke-linejoin="round"/>
<path d="M146.07 50.0991L144.662 54.7055" stroke="#BCC0DE" stroke-width="2" stroke-linecap="round" stroke-linejoin="round"/>
<path d="M139.35 44.6865L143.945 46.0915" stroke="#BCC0DE" stroke-width="2" stroke-linecap="round" stroke-linejoin="round"/>
<path d="M150.073 47.9648L154.669 49.3698" stroke="#BCC0DE" stroke-width="2" stroke-linecap="round" stroke-linejoin="round"/>
<path fill-rule="evenodd" clip-rule="evenodd" d="M12.6847 34.8435C11.9544 33.0137 10.5062 31.5631 8.67755 30.8298L7.25062 30.2576L8.67755 29.6854C10.5062 28.9521 11.9544 27.5015 12.6847 25.6716L13.2576 24.2365L13.8304 25.6716C14.5607 27.5015 16.009 28.9521 17.8376 29.6854L19.2645 30.2576L17.8376 30.8298C16.009 31.5631 14.5607 33.0137 13.8304 34.8435L13.2576 36.2787L12.6847 34.8435Z" fill="white" stroke="#E5E4F8" stroke-width="1.8" stroke-linecap="round"/>
<defs>
<linearGradient id="paint0_linear_182_1865" x1="0" y1="29.8732" x2="0" y2="86.0704" gradientUnits="userSpaceOnUse">
<stop stop-color="#EBEFFA"/>
<stop offset="1" stop-color="#FCEDF7"/>
</linearGradient>
<linearGradient id="paint1_linear_182_1865" x1="39.5446" y1="16.8476" x2="47.8425" y2="69.2387" gradientUnits="userSpaceOnUse">
<stop stop-color="#EBEFFA"/>
<stop offset="1" stop-color="#FCEDF7"/>
</linearGradient>
<linearGradient id="paint2_linear_182_1865" x1="23" y1="45.1268" x2="23" y2="74.831" gradientUnits="userSpaceOnUse">
<stop stop-color="#ACB5D8"/>
<stop offset="1" stop-color="#F2DFF1"/>
</linearGradient>
<linearGradient id="paint3_linear_182_1865" x1="67.6733" y1="21.347" x2="60.287" y2="91.6231" gradientUnits="userSpaceOnUse">
<stop stop-color="#ACB5D8"/>
<stop offset="1" stop-color="#F2DFF1"/>
</linearGradient>
<linearGradient id="paint4_linear_182_1865" x1="74.0886" y1="29.288" x2="69.1362" y2="76.407" gradientUnits="userSpaceOnUse">
<stop stop-color="#EBEFFA"/>
<stop offset="1" stop-color="#FCEDF7"/>
</linearGradient>
<linearGradient id="paint5_linear_182_1865" x1="82.6061" y1="41.3547" x2="79.5748" y2="70.1958" gradientUnits="userSpaceOnUse">
<stop stop-color="#B7C5FF" stop-opacity="0.29"/>
<stop offset="1" stop-color="#D9C7C7" stop-opacity="0.29"/>
</linearGradient>
</defs>
</svg>
