<svg width="17" height="19" viewBox="0 0 17 19" fill="none" xmlns="http://www.w3.org/2000/svg">
<path d="M13.5499 5.19416C13.3556 5.34537 13.3339 5.60443 13.4851 5.79871C14.3272 6.87826 14.7807 8.19532 14.7807 9.5556C14.7807 12.9238 12.0386 15.6659 8.67039 15.6659C8.2169 15.6659 7.74205 15.6011 7.31011 15.5147L8.21694 14.6078C8.38968 14.4351 8.38968 14.1761 8.21694 14.0033C8.04419 13.8305 7.78515 13.8305 7.61239 14.0033L5.60449 15.9681L7.61239 18.1488C7.69868 18.2351 7.80667 18.3 7.93619 18.3C8.04418 18.3 8.15216 18.2568 8.21692 18.192C8.38967 18.0408 8.41121 17.7602 8.23846 17.5874L7.13735 16.3784C7.63391 16.4864 8.15213 16.5511 8.67039 16.5511C12.5136 16.5511 15.6443 13.4205 15.6443 9.57722C15.6443 8.0011 15.1261 6.51128 14.1545 5.28059C14.025 5.06462 13.7442 5.04308 13.5499 5.19414L13.5499 5.19416Z" fill="#615E83" stroke="#615E83" stroke-width="0.4"/>
<path d="M3.48915 13.9385C3.57545 13.9385 3.66189 13.917 3.74819 13.8523C3.94248 13.701 3.96417 13.442 3.83449 13.2477C3.01399 12.1681 2.58221 10.8943 2.58221 9.55555C2.58221 6.18738 5.32432 3.44527 8.69249 3.44527C9.12427 3.44527 9.55605 3.4885 9.98803 3.59648L9.0812 4.48176C8.90846 4.6545 8.90846 4.91354 9.0812 5.08631C9.1675 5.17261 9.27549 5.21583 9.38347 5.21583C9.49145 5.21583 9.59944 5.17261 9.68574 5.08631L11.6936 3.12148L9.70725 0.940819C9.55604 0.768071 9.27547 0.746534 9.1027 0.919283C8.92995 1.07049 8.90842 1.35107 9.08117 1.52383L10.1823 2.7546C9.70727 2.64662 9.21071 2.58185 8.71416 2.58185C4.87094 2.58185 1.74023 5.71252 1.74023 9.55577C1.74023 11.0888 2.23679 12.5569 3.16528 13.766C3.23005 13.8954 3.35957 13.9386 3.48909 13.9386L3.48915 13.9385Z" fill="#615E83" stroke="#615E83" stroke-width="0.4"/>
<path d="M8.47864 10.569H6.53264L6.21064 11.5H5.18164L6.93864 6.60699H8.07964L9.83664 11.5H8.80064L8.47864 10.569ZM8.21264 9.785L7.50564 7.741L6.79864 9.785H8.21264Z" fill="#615E83"/>
<path d="M11.4734 6.614V11.5H10.4934V6.614H11.4734Z" fill="#615E83"/>
</svg>
