<svg width="28" height="42" viewBox="0 0 28 42" fill="none" xmlns="http://www.w3.org/2000/svg">
<path fill-rule="evenodd" clip-rule="evenodd" d="M4.84283 19.1287C3.99117 17.612 3.5 15.8643 3.5 14C3.5 8.2005 8.2005 3.5 14 3.5C19.7995 3.5 24.5 8.2005 24.5 14C24.5 19.7995 19.7995 24.5 14 24.5C12.1357 24.5 10.388 24.0088 8.87133 23.1572L3.5 24.5L4.84283 19.1287Z" stroke="white" stroke-width="1.8" stroke-linecap="round" stroke-linejoin="round"/>
<path d="M4.1416 40.0977C4.50781 40.0977 4.75195 39.8584 4.75195 39.458V36.9678C4.75195 36.3379 5.01562 35.9033 5.70898 35.8984C5.94824 35.8936 6.12891 35.8398 6.24609 35.7373C6.36816 35.6396 6.42676 35.498 6.42676 35.3076C6.42676 35.1074 6.36816 34.9609 6.25586 34.8682C6.16309 34.7852 6.0166 34.7363 5.82617 34.7363C5.30859 34.7363 4.85938 35.127 4.71777 35.7324H4.69336V35.3369C4.69336 34.9561 4.4541 34.7217 4.11719 34.7217C3.77051 34.7217 3.53613 34.9561 3.53613 35.3369V39.458C3.53613 39.8584 3.77539 40.0977 4.1416 40.0977ZM9.07812 40.1025C10.0645 40.1025 10.8359 39.7168 11.1777 39.0576C11.2314 38.9502 11.2607 38.8428 11.2607 38.75C11.2607 38.457 11.0459 38.2812 10.7725 38.2812C10.6016 38.2812 10.4893 38.335 10.3623 38.4766C9.97168 38.9746 9.61523 39.165 9.06836 39.165C8.27734 39.165 7.77441 38.6084 7.77441 37.7441V37.7051H10.8262C11.1875 37.7051 11.3926 37.4902 11.3926 37.1289C11.3926 35.7227 10.4258 34.7168 9.00977 34.7168C7.51562 34.7168 6.56348 35.7812 6.56348 37.4316C6.56348 39.1113 7.49609 40.1025 9.07812 40.1025ZM7.78418 36.9043C7.83301 36.1621 8.33105 35.6592 9.01465 35.6592C9.69824 35.6592 10.1768 36.1523 10.2012 36.9043H7.78418ZM12.7842 41.8408C13.1406 41.8408 13.3945 41.6113 13.3945 41.2012V39.1406H13.4189C13.7021 39.7217 14.2881 40.083 15.04 40.083C16.3389 40.083 17.1689 39.0625 17.1689 37.4121C17.1689 35.7568 16.334 34.7363 15.0205 34.7363C14.2686 34.7363 13.6826 35.1172 13.3896 35.7178H13.3652V35.3467C13.3652 34.9463 13.1162 34.7217 12.7695 34.7217C12.4229 34.7217 12.1787 34.9463 12.1787 35.3467V41.2012C12.1787 41.6113 12.4277 41.8408 12.7842 41.8408ZM14.6494 39.0869C13.8926 39.0869 13.3896 38.4277 13.3848 37.4121C13.3896 36.4062 13.8926 35.7373 14.6494 35.7373C15.4355 35.7373 15.9238 36.3916 15.9238 37.4121C15.9238 38.4375 15.4355 39.0869 14.6494 39.0869ZM18.5947 40.0977C18.9512 40.0977 19.2002 39.8682 19.2002 39.458V33.4961C19.2002 33.0859 18.9512 32.8564 18.5947 32.8564C18.2383 32.8564 17.9844 33.0859 17.9844 33.4961V39.458C17.9844 39.8682 18.2383 40.0977 18.5947 40.0977ZM20.9775 41.9238C22.0127 41.9238 22.5498 41.4746 23.0186 40.1855L24.7227 35.625C24.7666 35.5078 24.791 35.3711 24.791 35.2734C24.791 34.9512 24.5469 34.7217 24.2002 34.7217C23.8926 34.7217 23.7168 34.8633 23.6143 35.1953L22.3789 38.9648H22.3594L21.124 35.2002C21.0215 34.8584 20.8506 34.7217 20.543 34.7217C20.1865 34.7217 19.918 34.9561 19.918 35.2881C19.918 35.3857 19.9424 35.5127 19.9863 35.6348L21.6807 40.0928L21.5928 40.3467C21.4121 40.8008 21.1289 40.9424 20.8555 40.9424C20.7432 40.9424 20.6943 40.9375 20.5918 40.9375C20.3086 40.9375 20.1328 41.0986 20.1328 41.3477C20.1328 41.7188 20.4307 41.9238 20.9775 41.9238Z" fill="white"/>
</svg>
