<svg width="13" height="13" viewBox="0 0 13 13" fill="none" xmlns="http://www.w3.org/2000/svg">
<path d="M8.72449 4.15538H2.04979L5.00326 1.46732V1.46743C5.11846 1.34322 5.16358 1.16954 5.12338 1.00501C5.0833 0.840364 4.96307 0.707005 4.80358 0.649933C4.6442 0.592864 4.46668 0.619816 4.3312 0.721417L0.415 4.27792C0.309883 4.37343 0.25 4.50878 0.25 4.65082C0.25 4.79286 0.309883 4.92832 0.415 5.02384L4.3159 8.58364C4.45137 8.68535 4.62892 8.71219 4.78828 8.65512C4.94777 8.59805 5.06801 8.46469 5.10808 8.30016C5.14827 8.13551 5.10316 7.96185 4.98796 7.83774L2.06635 5.16318H8.72425C9.75445 5.23197 10.6784 5.82153 11.1745 6.72705C11.6708 7.63245 11.6708 8.7285 11.1745 9.6339C10.6784 10.5393 9.75445 11.129 8.72425 11.1978H6.54022C6.36022 11.1978 6.19381 11.2937 6.10369 11.4497C6.01369 11.6057 6.01369 11.7978 6.10369 11.9538C6.19381 12.1096 6.36022 12.2057 6.54022 12.2057H8.72425C10.1071 12.1258 11.3522 11.3416 12.0216 10.1289C12.6909 8.91611 12.6909 7.44471 12.0216 6.23219C11.3522 5.01941 10.1071 4.23521 8.72425 4.1553L8.72449 4.15538Z" fill="#615E83" stroke="#615E83" stroke-width="0.3"/>
</svg>
