<svg width="28" height="42" viewBox="0 0 28 42" fill="none" xmlns="http://www.w3.org/2000/svg">
<path d="M17.3042 5.62495L25.2731 13.4282L16.9895 20.9358V18.049C16.9895 17.6763 16.8415 17.3188 16.578 17.0553C16.3142 16.7916 15.9568 16.6436 15.5841 16.6436C7.99464 16.6436 4.56284 18.479 3.02488 20.1403C4.2166 10.1506 12.6944 9.33543 15.3647 9.33543H15.7976H15.8988C16.2715 9.33543 16.629 9.1872 16.8925 8.92368C17.156 8.66016 17.3043 8.30272 17.3043 7.92998L17.3042 5.62495ZM16.4272 3.00524C16.2868 3.00446 16.1519 3.05994 16.0527 3.15916C15.9533 3.25837 15.898 3.39327 15.8988 3.53365V7.95233H15.3647C12.8263 7.92998 2.06362 8.69722 1.50144 21.549C1.48673 21.8235 1.58516 22.0921 1.77359 22.2922C1.96202 22.4924 2.22436 22.6067 2.49925 22.6086C2.6865 22.6106 2.87022 22.5586 3.02886 22.459C3.18728 22.3592 3.31375 22.2161 3.39316 22.0465C3.96096 20.8349 6.27995 18.0493 15.5839 18.0493V22.9178C15.5841 23.126 15.707 23.3143 15.8974 23.3984C16.0878 23.4823 16.31 23.446 16.4637 23.3058L26.9062 13.8331C27.0138 13.7357 27.0765 13.5982 27.0799 13.4531C27.083 13.308 27.0264 13.1678 26.923 13.0657L16.7928 3.15176C16.6959 3.0549 16.5645 3.0002 16.4275 3L16.4272 3.00524Z" fill="white" stroke="white" stroke-width="0.3"/>
<path d="M4.19043 40.1025C5.50879 40.1025 6.39746 39.4531 6.39746 38.4619C6.39746 37.6953 5.96289 37.2998 4.86914 37.0508L4.04395 36.8701C3.50684 36.748 3.28223 36.543 3.28223 36.2402C3.28223 35.8691 3.64844 35.6104 4.18066 35.6104C4.69336 35.6104 4.99121 35.835 5.23047 36.1914C5.34277 36.3525 5.51855 36.416 5.69434 36.416C6.00195 36.416 6.16309 36.2354 6.16309 35.9814C6.16309 35.9229 6.15332 35.8643 6.13867 35.8008C5.97754 35.2051 5.20605 34.7168 4.20996 34.7168C2.93066 34.7168 2.10059 35.3467 2.10059 36.3086C2.10059 37.0605 2.59863 37.5586 3.60938 37.7881L4.44922 37.9785C4.98145 38.1006 5.17676 38.2715 5.17676 38.584C5.17676 38.9746 4.80078 39.2139 4.23438 39.2139C3.65332 39.2139 3.34082 39.0381 3.06738 38.6426C2.91113 38.4375 2.74023 38.3447 2.54004 38.3447C2.24707 38.3447 2.03223 38.5303 2.03223 38.8232C2.03223 38.8965 2.04688 38.9746 2.08105 39.0625C2.33008 39.6826 3.09668 40.1025 4.19043 40.1025ZM7.80859 40.0977C8.16504 40.0977 8.41406 39.8682 8.41406 39.458V37.0264C8.41406 36.2646 8.8584 35.7568 9.59082 35.7568C10.2939 35.7568 10.6553 36.1914 10.6553 36.9141V39.458C10.6553 39.8682 10.9043 40.0977 11.2607 40.0977C11.6172 40.0977 11.8711 39.8682 11.8711 39.458V36.665C11.8711 35.4785 11.2021 34.7266 10.0596 34.7266C9.27344 34.7266 8.70215 35.083 8.42383 35.7129H8.39941V33.4814C8.39941 33.0957 8.1748 32.8564 7.79883 32.8564C7.42773 32.8564 7.19824 33.0957 7.19824 33.4814V39.458C7.19824 39.8682 7.45215 40.0977 7.80859 40.0977ZM14.3662 40.083C15.0352 40.083 15.6846 39.7363 15.9824 39.1748H16.0068V39.5361C16.0264 39.8975 16.2559 40.0977 16.5879 40.0977C16.9297 40.0977 17.1787 39.8779 17.1787 39.4873V36.4355C17.1787 35.3955 16.3438 34.7168 15.0596 34.7168C14.0684 34.7168 13.2676 35.0977 13.0039 35.6982C12.9502 35.8105 12.9209 35.918 12.9209 36.0303C12.9209 36.3232 13.1357 36.5186 13.4336 36.5186C13.6387 36.5186 13.7998 36.4404 13.9268 36.2744C14.2295 35.8301 14.5371 35.6689 15.0107 35.6689C15.6113 35.6689 15.9775 35.9814 15.9775 36.5234V36.8945L14.6055 36.9727C13.3457 37.0508 12.6377 37.6025 12.6377 38.5205C12.6377 39.4531 13.3652 40.083 14.3662 40.083ZM14.7373 39.165C14.21 39.165 13.8535 38.8965 13.8535 38.4717C13.8535 38.0615 14.1904 37.7979 14.7764 37.7588L15.9775 37.6855V38.0811C15.9775 38.7061 15.4209 39.165 14.7373 39.165ZM18.7656 40.0977C19.1318 40.0977 19.376 39.8584 19.376 39.458V36.9678C19.376 36.3379 19.6396 35.9033 20.333 35.8984C20.5723 35.8936 20.7529 35.8398 20.8701 35.7373C20.9922 35.6396 21.0508 35.498 21.0508 35.3076C21.0508 35.1074 20.9922 34.9609 20.8799 34.8682C20.7871 34.7852 20.6406 34.7363 20.4502 34.7363C19.9326 34.7363 19.4834 35.127 19.3418 35.7324H19.3174V35.3369C19.3174 34.9561 19.0781 34.7217 18.7412 34.7217C18.3945 34.7217 18.1602 34.9561 18.1602 35.3369V39.458C18.1602 39.8584 18.3994 40.0977 18.7656 40.0977ZM23.7021 40.1025C24.6885 40.1025 25.46 39.7168 25.8018 39.0576C25.8555 38.9502 25.8848 38.8428 25.8848 38.75C25.8848 38.457 25.6699 38.2812 25.3965 38.2812C25.2256 38.2812 25.1133 38.335 24.9863 38.4766C24.5957 38.9746 24.2393 39.165 23.6924 39.165C22.9014 39.165 22.3984 38.6084 22.3984 37.7441V37.7051H25.4502C25.8115 37.7051 26.0166 37.4902 26.0166 37.1289C26.0166 35.7227 25.0498 34.7168 23.6338 34.7168C22.1396 34.7168 21.1875 35.7812 21.1875 37.4316C21.1875 39.1113 22.1201 40.1025 23.7021 40.1025ZM22.4082 36.9043C22.457 36.1621 22.9551 35.6592 23.6387 35.6592C24.3223 35.6592 24.8008 36.1523 24.8252 36.9043H22.4082Z" fill="white"/>
</svg>
