<svg width="19" height="19" viewBox="0 0 19 19" fill="none" xmlns="http://www.w3.org/2000/svg">
<path d="M9.50017 1.05554C7.26052 1.05554 5.11268 1.94522 3.52904 3.52892C1.94535 5.11249 1.05566 7.26046 1.05566 9.50005C1.05566 11.7396 1.94535 13.8875 3.52904 15.4712C5.11262 17.0549 7.26058 17.9446 9.50017 17.9446C11.7398 17.9446 13.8877 17.0549 15.4713 15.4712C17.055 13.8876 17.9447 11.7396 17.9447 9.50005C17.9447 7.26046 17.055 5.11256 15.4713 3.52892C13.8877 1.94522 11.7398 1.05554 9.50017 1.05554ZM9.50017 17.0062C7.50945 17.0062 5.60004 16.2153 4.19253 14.8077C2.78484 13.4 1.99402 11.4908 1.99402 9.50005C1.99402 7.50927 2.78488 5.59992 4.19253 4.19241C5.60022 2.78472 7.50939 1.9939 9.50017 1.9939C11.4909 1.9939 13.4003 2.78475 14.8078 4.19241C16.2155 5.6001 17.0063 7.50927 17.0063 9.50005C17.0063 10.8176 16.6594 12.1121 16.0006 13.2533C15.3418 14.3944 14.3943 15.3419 13.2532 16.0007C12.1121 16.6595 10.8176 17.0064 9.49993 17.0064L9.50017 17.0062Z" fill="#414141" stroke="#414141" stroke-width="0.3"/>
<path d="M10.8605 11.0245C10.5591 11.4867 10.0448 11.7654 9.49296 11.7654C8.94127 11.7654 8.42679 11.4867 8.12545 11.0245C8.0537 10.922 7.9439 10.8525 7.82057 10.8314C7.69723 10.8102 7.57046 10.8392 7.46868 10.9119C7.36748 10.9838 7.29892 11.0926 7.27783 11.2148C7.25674 11.3369 7.2849 11.4625 7.35606 11.5641C7.83317 12.2774 8.63485 12.7056 9.49295 12.7056C10.3512 12.7056 11.1527 12.2774 11.6299 11.5641C11.7025 11.4622 11.7316 11.3355 11.7104 11.2122C11.6893 11.0888 11.6197 10.979 11.5173 10.9073C11.4149 10.835 11.2879 10.8068 11.1644 10.8288C11.0411 10.8509 10.9316 10.9213 10.8605 11.0245Z" fill="#414141" stroke="#414141" stroke-width="0.3"/>
<path d="M6.00966 8.09253C5.80938 8.09253 5.61723 8.17217 5.47564 8.31377C5.33391 8.45549 5.25439 8.64751 5.25439 8.84791C5.25439 9.04818 5.33391 9.24034 5.47564 9.38193C5.61724 9.52365 5.80937 9.60317 6.00966 9.60317C6.21005 9.60317 6.40208 9.52365 6.5438 9.38193C6.6854 9.24033 6.76504 9.0482 6.76504 8.84791C6.76504 8.64752 6.6854 8.45549 6.5438 8.31377C6.40208 8.17217 6.21006 8.09253 6.00966 8.09253Z" fill="#414141" stroke="#414141" stroke-width="0.3"/>
<path d="M12.906 8.09242C12.7053 8.09124 12.5125 8.16982 12.37 8.31095C12.2274 8.45197 12.1468 8.644 12.146 8.84461C12.1452 9.04524 12.2241 9.23785 12.3655 9.38017C12.507 9.52248 12.6991 9.60259 12.8997 9.60306C13.1002 9.60342 13.2929 9.52413 13.4348 9.38241C13.5768 9.24069 13.6565 9.04831 13.6565 8.84779C13.6566 8.64822 13.5777 8.45678 13.4371 8.3153C13.2964 8.17382 13.1054 8.09371 12.906 8.09242Z" fill="#414141" stroke="#414141" stroke-width="0.3"/>
</svg>
