<svg width="15" height="18" viewBox="0 0 15 18" fill="none" xmlns="http://www.w3.org/2000/svg">
<path fill-rule="evenodd" clip-rule="evenodd" d="M10.5943 1.17694C10.5943 1.17694 4.5167 1.18011 4.5072 1.18011C2.3222 1.19357 0.969238 2.63123 0.969238 4.82415V12.1043C0.969238 14.3083 2.33249 15.7515 4.53649 15.7515C4.53649 15.7515 10.6133 15.7491 10.6236 15.7491C12.8086 15.7357 14.1624 14.2972 14.1624 12.1043V4.82415C14.1624 2.62015 12.7983 1.17694 10.5943 1.17694Z" stroke="#414141" stroke-width="1.2" stroke-linecap="round" stroke-linejoin="round"/>
<path d="M9.919 7.94L9.501 9.92H11.019V10.8H9.314L8.841 13H7.884L8.357 10.8H6.047L5.574 13H4.617L5.09 10.8H3.363V9.92H5.277L5.695 7.94H3.99V7.06H5.882L6.355 4.86H7.312L6.839 7.06H9.149L9.622 4.86H10.579L10.106 7.06H11.635V7.94H9.919ZM8.962 7.94H6.652L6.234 9.92H8.544L8.962 7.94Z" fill="#414141"/>
</svg>
