<svg width="28" height="28" viewBox="0 0 28 28" fill="none" xmlns="http://www.w3.org/2000/svg">
<path d="M14.25 1C10.7358 1 7.36563 2.39595 4.88072 4.88072C2.39595 7.36563 1 10.7359 1 14.25C1 17.7641 2.39595 21.1344 4.88072 23.6193C7.36563 26.104 10.7359 27.5 14.25 27.5C17.7641 27.5 21.1344 26.104 23.6193 23.6193C26.104 21.1344 27.5 17.7641 27.5 14.25C27.5 11.9242 26.8878 9.63936 25.7249 7.62508C24.562 5.6108 22.8894 3.93819 20.8751 2.77528C18.8608 1.61237 16.576 1.00015 14.2502 1.00015L14.25 1ZM14.25 25.7331C11.2045 25.7331 8.28378 24.5232 6.12999 22.3697C3.9765 20.2162 2.76665 17.2954 2.76665 14.2497C2.76665 11.204 3.9765 8.28348 6.12999 6.12969C8.28348 3.97619 11.2043 2.76634 14.25 2.76634C17.2957 2.76634 20.2162 3.97619 22.37 6.12969C24.5235 8.28318 25.7334 11.204 25.7334 14.2497C25.7334 17.2954 24.5235 20.2159 22.37 22.3697C20.2165 24.5232 17.2957 25.7331 14.25 25.7331Z" fill="white"/>
<path d="M8.9502 8.06659V9.83324C8.9502 10.1489 9.11858 10.4405 9.39186 10.5982C9.66514 10.756 10.0019 10.756 10.2752 10.5982C10.5485 10.4405 10.7168 10.1489 10.7168 9.83324H13.3668V18.6665H12.4835C12.1678 18.6665 11.8762 18.8349 11.7185 19.1081C11.5607 19.3814 11.5607 19.7182 11.7185 19.9915C11.8762 20.2647 12.1678 20.4331 12.4835 20.4331H16.0168C16.3325 20.4331 16.6241 20.2647 16.7818 19.9915C16.9395 19.7182 16.9395 19.3814 16.7818 19.1081C16.6241 18.8349 16.3324 18.6665 16.0168 18.6665H15.1335V9.83324H17.7834C17.7834 10.1489 17.9518 10.4405 18.2251 10.5982C18.4984 10.756 18.8351 10.756 19.1084 10.5982C19.3817 10.4405 19.5501 10.1489 19.5501 9.83324V8.06659H8.9502Z" fill="white"/>
</svg>
